<?xml version="1.0" encoding="utf-8"?>
<!-- Generator: Adobe Illustrator 15.1.0, SVG Export Plug-In . SVG Version: 6.00 Build 0)  -->
<!DOCTYPE svg PUBLIC "-//W3C//DTD SVG 1.1//EN" "http://www.w3.org/Graphics/SVG/1.1/DTD/svg11.dtd">
<svg version="1.1" id="Layer_1" xmlns="http://www.w3.org/2000/svg" xmlns:xlink="http://www.w3.org/1999/xlink" x="0px" y="0px"
	 width="100px" height="500px" viewBox="0 0 100 500" enable-background="new 0 0 100 500" xml:space="preserve">
<rect fill="#680C24" width="100" height="500"/>
<g opacity="0.5">
	<rect x="9" y="204" fill="#5B0E1F" width="2" height="2"/>
	<rect x="6" y="206" fill="#5B0E1F" width="2" height="2"/>
	<rect x="2" y="208" fill="#5B0E1F" width="2" height="2"/>
	<rect x="14" y="208" fill="#5B0E1F" width="2" height="2"/>
	<rect x="36" y="208" fill="#5B0E1F" width="2" height="2"/>
	<rect x="68" y="208" fill="#5B0E1F" width="2" height="2"/>
	<rect x="82" y="208" fill="#5B0E1F" width="2" height="2"/>
	<rect x="26" y="206" fill="#5B0E1F" width="2" height="2"/>
	<rect x="42" y="206" fill="#5B0E1F" width="2" height="2"/>
	<rect x="47" y="206" fill="#5B0E1F" width="2" height="2"/>
	<rect x="56" y="206" fill="#5B0E1F" width="2" height="2"/>
	<rect x="62" y="206" fill="#5B0E1F" width="2" height="2"/>
	<rect x="88" y="206" fill="#5B0E1F" width="2" height="2"/>
	<rect x="98" y="206" fill="#5B0E1F" width="2" height="2"/>
	<rect y="204" fill="#5B0E1F" width="2" height="2"/>
	<rect x="20" y="204" fill="#5B0E1F" width="4" height="2"/>
	<rect x="18" y="202" fill="#5B0E1F" width="2" height="2"/>
	<rect x="34" y="204" fill="#5B0E1F" width="4" height="2"/>
	<rect x="50" y="204" fill="#5B0E1F" width="4" height="2"/>
	<polygon fill="#5B0E1F" points="46,202 42,202 42,204 50,204 50,202 48,202 48,200 46,200 	"/>
	<rect x="64" y="202" fill="#5B0E1F" width="2" height="2"/>
	<rect x="72" y="202" fill="#5B0E1F" width="2" height="2"/>
	<rect x="66" y="204" fill="#5B0E1F" width="2" height="2"/>
	<rect x="74" y="204" fill="#5B0E1F" width="2" height="2"/>
	<rect x="92" y="204" fill="#5B0E1F" width="2" height="2"/>
	<rect x="96" y="204" fill="#5B0E1F" width="2" height="2"/>
	<polygon fill="#5B0E1F" points="84,200 82,200 82,202 80,202 80,204 78,204 78,206 80,206 80,208 82,208 82,206 82,204 86,204 
		86,202 84,202 	"/>
	<rect x="78" y="200" fill="#5B0E1F" width="2" height="2"/>
	<path fill="#5B0E1F" d="M2,202v2h6v-2h6v2h2v-2v-2h-2v-2h2v2h2v-2h2h4v2h-4v2h6v-2h4v-2h2v2h-2v2h-2v2h6v-2h6v-2h4v-2h4v2h4v2h6v2
		v2h2v-2v-2h2v-2h-8v-2h8v2h4v2h6v-2v-2h2v2h2v-2h10h2v2v2h2v2h2v-2h6v-2h2v-2V0H0.1v198H0v2h6v2H2z M94,198v2h-4v-2H94z M38,198v2
		h-4v-2H38z M10,198h2v2h-2V198z"/>
</g>
<g opacity="0.5">
	<rect x="89" y="294" fill="#5B0E1F" width="2" height="2"/>
	<rect x="92" y="292" fill="#5B0E1F" width="2" height="2"/>
	<rect x="96" y="290" fill="#5B0E1F" width="2" height="2"/>
	<rect x="84" y="290" fill="#5B0E1F" width="2" height="2"/>
	<rect x="62" y="290" fill="#5B0E1F" width="2" height="2"/>
	<rect x="30" y="290" fill="#5B0E1F" width="2" height="2"/>
	<rect x="16" y="290" fill="#5B0E1F" width="2" height="2"/>
	<rect x="72" y="292" fill="#5B0E1F" width="2" height="2"/>
	<rect x="56" y="292" fill="#5B0E1F" width="2" height="2"/>
	<rect x="51" y="292" fill="#5B0E1F" width="2" height="2"/>
	<rect x="42" y="292" fill="#5B0E1F" width="2" height="2"/>
	<rect x="36" y="292" fill="#5B0E1F" width="2" height="2"/>
	<rect x="10" y="292" fill="#5B0E1F" width="2" height="2"/>
	<rect y="292" fill="#5B0E1F" width="2" height="2"/>
	<rect x="98" y="294" fill="#5B0E1F" width="2" height="2"/>
	<rect x="76" y="294" fill="#5B0E1F" width="4" height="2"/>
	<rect x="80" y="296" fill="#5B0E1F" width="2" height="2"/>
	<rect x="62" y="294" fill="#5B0E1F" width="4" height="2"/>
	<rect x="46" y="294" fill="#5B0E1F" width="4" height="2"/>
	<polygon fill="#5B0E1F" points="54,298 58,298 58,296 50,296 50,298 52,298 52,300 54,300 	"/>
	<rect x="34" y="296" fill="#5B0E1F" width="2" height="2"/>
	<rect x="26" y="296" fill="#5B0E1F" width="2" height="2"/>
	<rect x="32" y="294" fill="#5B0E1F" width="2" height="2"/>
	<rect x="24" y="294" fill="#5B0E1F" width="2" height="2"/>
	<rect x="6" y="294" fill="#5B0E1F" width="2" height="2"/>
	<rect x="2" y="294" fill="#5B0E1F" width="2" height="2"/>
	<polygon fill="#5B0E1F" points="16,300 18,300 18,298 20,298 20,296 22,296 22,294 20,294 20,292 18,292 18,294 18,296 14,296 
		14,298 16,298 	"/>
	<rect x="20" y="298" fill="#5B0E1F" width="2" height="2"/>
	<path fill="#5B0E1F" d="M98,298v-2h-6v2h-6v-2h-2v2v2h2v2h-2v-2h-2v2h-2h-4v-2h4v-2h-6v2h-4v2h-2v-2h2v-2h2v-2h-6v2h-6v2h-4v2h-4
		v-2h-4v-2h-6v-2v-2h-2v2v2h-2v2h8v2h-8v-2h-4v-2h-6v2v2h-2v-2h-2v2H14h-2v-2v-2h-2v-2H8v2H2v2H0v2v198h99.9V302h0.1v-2h-6v-2H98z
		 M6,302v-2h4v2H6z M62,302v-2h4v2H62z M90,302h-2v-2h2V302z"/>
</g>
<g>
	<rect x="89" y="229" fill="#720D2C" width="2" height="2"/>
	<rect x="92" y="227" fill="#720D2C" width="2" height="2"/>
	<rect x="96" y="225" fill="#720D2C" width="2" height="2"/>
	<rect x="84" y="225" fill="#720D2C" width="2" height="2"/>
	<rect x="62" y="225" fill="#720D2C" width="2" height="2"/>
	<rect x="30" y="225" fill="#720D2C" width="2" height="2"/>
	<rect x="16" y="225" fill="#720D2C" width="2" height="2"/>
	<rect x="72" y="227" fill="#720D2C" width="2" height="2"/>
	<rect x="56" y="227" fill="#720D2C" width="2" height="2"/>
	<rect x="51" y="227" fill="#720D2C" width="2" height="2"/>
	<rect x="42" y="227" fill="#720D2C" width="2" height="2"/>
	<rect x="36" y="227" fill="#720D2C" width="2" height="2"/>
	<rect x="10" y="227" fill="#720D2C" width="2" height="2"/>
	<rect y="227" fill="#720D2C" width="2" height="2"/>
	<rect x="98" y="229" fill="#720D2C" width="2" height="2"/>
	<rect x="76" y="229" fill="#720D2C" width="4" height="2"/>
	<rect x="80" y="231" fill="#720D2C" width="2" height="2"/>
	<rect x="62" y="229" fill="#720D2C" width="4" height="2"/>
	<rect x="46" y="229" fill="#720D2C" width="4" height="2"/>
	<polygon fill="#720D2C" points="54,233 58,233 58,231 50,231 50,233 52,233 52,235 54,235 	"/>
	<rect x="34" y="231" fill="#720D2C" width="2" height="2"/>
	<rect x="26" y="231" fill="#720D2C" width="2" height="2"/>
	<rect x="32" y="229" fill="#720D2C" width="2" height="2"/>
	<rect x="24" y="229" fill="#720D2C" width="2" height="2"/>
	<rect x="6" y="229" fill="#720D2C" width="2" height="2"/>
	<rect x="2" y="229" fill="#720D2C" width="2" height="2"/>
	<polygon fill="#720D2C" points="16,235 18,235 18,233 20,233 20,231 22,231 22,229 20,229 20,227 18,227 18,229 18,231 14,231 
		14,233 16,233 	"/>
	<rect x="20" y="233" fill="#720D2C" width="2" height="2"/>
	<path fill="#720D2C" d="M98,233v-2h-6v2h-6v-2h-2v2v2h2v2h-2v-2h-2v2h-2h-4v-2h4v-2h-6v2h-4v2h-2v-2h2v-2h2v-2h-6v2h-6v2h-4v2h-4
		v-2h-4v-2h-6v-2v-2h-2v2v2h-2v2h8v2h-8v-2h-4v-2h-6v2v2h-2v-2h-2v2H14h-2v-2v-2h-2v-2H8v2H2v2H0v30h6v2H2v2h6v-2h6v2h2v-2v-2h-2v-2
		h2v2h2v-2h2h4v2h-4v2h6v-2h4v-2h2v2h-2v2h-2v2h6v-2h6v-2h4v-2h4v2h4v2h6v2v2h2v-2v-2h2v-2h-8v-2h8v2h4v2h6v-2v-2h2v2h2v-2h10h2v2v2
		h2v2h2v-2h6v-2h2v-30h-6v-2H98z M12,265h-2v-2h2V265z M38,265h-4v-2h4V265z M94,265h-4v-2h4V265z M88,235h2v2h-2V235z M62,235h4v2
		h-4V235z M6,235h4v2H6V235z"/>
	<rect x="9" y="269" fill="#720D2C" width="2" height="2"/>
	<rect x="6" y="271" fill="#720D2C" width="2" height="2"/>
	<rect x="2" y="273" fill="#720D2C" width="2" height="2"/>
	<rect x="14" y="273" fill="#720D2C" width="2" height="2"/>
	<rect x="36" y="273" fill="#720D2C" width="2" height="2"/>
	<rect x="68" y="273" fill="#720D2C" width="2" height="2"/>
	<rect x="82" y="273" fill="#720D2C" width="2" height="2"/>
	<rect x="26" y="271" fill="#720D2C" width="2" height="2"/>
	<rect x="42" y="271" fill="#720D2C" width="2" height="2"/>
	<rect x="47" y="271" fill="#720D2C" width="2" height="2"/>
	<rect x="56" y="271" fill="#720D2C" width="2" height="2"/>
	<rect x="62" y="271" fill="#720D2C" width="2" height="2"/>
	<rect x="88" y="271" fill="#720D2C" width="2" height="2"/>
	<rect x="98" y="271" fill="#720D2C" width="2" height="2"/>
	<rect y="269" fill="#720D2C" width="2" height="2"/>
	<rect x="20" y="269" fill="#720D2C" width="4" height="2"/>
	<rect x="18" y="267" fill="#720D2C" width="2" height="2"/>
	<rect x="34" y="269" fill="#720D2C" width="4" height="2"/>
	<rect x="50" y="269" fill="#720D2C" width="4" height="2"/>
	<polygon fill="#720D2C" points="46,267 42,267 42,269 50,269 50,267 48,267 48,265 46,265 	"/>
	<rect x="64" y="267" fill="#720D2C" width="2" height="2"/>
	<rect x="72" y="267" fill="#720D2C" width="2" height="2"/>
	<rect x="66" y="269" fill="#720D2C" width="2" height="2"/>
	<rect x="74" y="269" fill="#720D2C" width="2" height="2"/>
	<rect x="92" y="269" fill="#720D2C" width="2" height="2"/>
	<rect x="96" y="269" fill="#720D2C" width="2" height="2"/>
	<polygon fill="#720D2C" points="84,265 82,265 82,267 80,267 80,269 78,269 78,271 80,271 80,273 82,273 82,271 82,269 86,269 
		86,267 84,267 	"/>
	<rect x="78" y="265" fill="#720D2C" width="2" height="2"/>
</g>
<g opacity="0.5">
	<rect x="89" y="160" fill="#490C1C" width="2" height="2"/>
	<rect x="92" y="162" fill="#490C1C" width="2" height="2"/>
	<rect x="96" y="164" fill="#490C1C" width="2" height="2"/>
	<rect x="84" y="164" fill="#490C1C" width="2" height="2"/>
	<rect x="62" y="164" fill="#490C1C" width="2" height="2"/>
	<rect x="30" y="164" fill="#490C1C" width="2" height="2"/>
	<rect x="16" y="164" fill="#490C1C" width="2" height="2"/>
	<rect x="72" y="162" fill="#490C1C" width="2" height="2"/>
	<rect x="56" y="162" fill="#490C1C" width="2" height="2"/>
	<rect x="51" y="162" fill="#490C1C" width="2" height="2"/>
	<rect x="42" y="162" fill="#490C1C" width="2" height="2"/>
	<rect x="36" y="162" fill="#490C1C" width="2" height="2"/>
	<rect x="10" y="162" fill="#490C1C" width="2" height="2"/>
	<rect y="162" fill="#490C1C" width="2" height="2"/>
	<rect x="98" y="160" fill="#490C1C" width="2" height="2"/>
	<rect x="76" y="160" fill="#490C1C" width="4" height="2"/>
	<rect x="80" y="158" fill="#490C1C" width="2" height="2"/>
	<rect x="62" y="160" fill="#490C1C" width="4" height="2"/>
	<rect x="46" y="160" fill="#490C1C" width="4" height="2"/>
	<polygon fill="#490C1C" points="54,158 58,158 58,160 50,160 50,158 52,158 52,156 54,156 	"/>
	<rect x="34" y="158" fill="#490C1C" width="2" height="2"/>
	<rect x="26" y="158" fill="#490C1C" width="2" height="2"/>
	<rect x="32" y="160" fill="#490C1C" width="2" height="2"/>
	<rect x="24" y="160" fill="#490C1C" width="2" height="2"/>
	<rect x="6" y="160" fill="#490C1C" width="2" height="2"/>
	<rect x="2" y="160" fill="#490C1C" width="2" height="2"/>
	<polygon fill="#490C1C" points="16,156 18,156 18,158 20,158 20,160 22,160 22,162 20,162 20,164 18,164 18,162 18,160 14,160 
		14,158 16,158 	"/>
	<rect x="20" y="156" fill="#490C1C" width="2" height="2"/>
	<path fill="#490C1C" d="M94,158v-2h6v-2h-0.1V44H0v110v2h2v2h6v2h2v-2h2v-2v-2h2h10v2h2v-2h2v2v2h6v-2h4v-2h8v2h-8v2h2v2v2h2v-2v-2
		h6v-2h4v-2h4v2h4v2h6v2h6v-2h-2v-2h-2v-2h2v2h4v2h6v-2h-4v-2h4h2v2h2v-2h2v2h-2v2v2h2v-2h6v2h6v-2H94z M10,154v2H6v-2H10z M66,154
		v2h-4v-2H66z M90,156h-2v-2h2V156z"/>
</g>
<g opacity="0.5">
	<rect x="9" y="132" fill="#3F0915" width="2" height="2"/>
	<rect x="6" y="134" fill="#3F0915" width="2" height="2"/>
	<rect x="2" y="136" fill="#3F0915" width="2" height="2"/>
	<rect x="14" y="136" fill="#3F0915" width="2" height="2"/>
	<rect x="36" y="136" fill="#3F0915" width="2" height="2"/>
	<rect x="68" y="136" fill="#3F0915" width="2" height="2"/>
	<rect x="82" y="136" fill="#3F0915" width="2" height="2"/>
	<rect x="26" y="134" fill="#3F0915" width="2" height="2"/>
	<rect x="42" y="134" fill="#3F0915" width="2" height="2"/>
	<rect x="47" y="134" fill="#3F0915" width="2" height="2"/>
	<rect x="56" y="134" fill="#3F0915" width="2" height="2"/>
	<rect x="62" y="134" fill="#3F0915" width="2" height="2"/>
	<rect x="88" y="134" fill="#3F0915" width="2" height="2"/>
	<rect x="98" y="134" fill="#3F0915" width="2" height="2"/>
	<rect y="132" fill="#3F0915" width="2" height="2"/>
	<rect x="20" y="132" fill="#3F0915" width="4" height="2"/>
	<rect x="18" y="130" fill="#3F0915" width="2" height="2"/>
	<rect x="34" y="132" fill="#3F0915" width="4" height="2"/>
	<rect x="50" y="132" fill="#3F0915" width="4" height="2"/>
	<polygon fill="#3F0915" points="46,130 42,130 42,132 50,132 50,130 48,130 48,128 46,128 	"/>
	<rect x="64" y="130" fill="#3F0915" width="2" height="2"/>
	<rect x="72" y="130" fill="#3F0915" width="2" height="2"/>
	<rect x="66" y="132" fill="#3F0915" width="2" height="2"/>
	<rect x="74" y="132" fill="#3F0915" width="2" height="2"/>
	<rect x="92" y="132" fill="#3F0915" width="2" height="2"/>
	<rect x="96" y="132" fill="#3F0915" width="2" height="2"/>
	<polygon fill="#3F0915" points="84,128 82,128 82,130 80,130 80,132 78,132 78,134 80,134 80,136 82,136 82,134 82,132 86,132 
		86,130 84,130 	"/>
	<rect x="78" y="128" fill="#3F0915" width="2" height="2"/>
	<path fill="#3F0915" d="M2,130v2h6v-2h6v2h2v-2v-2h-2v-2h2v2h2v-2h2h4v2h-4v2h6v-2h4v-2h2v2h-2v2h-2v2h6v-2h6v-2h4v-2h4v2h4v2h6v2
		v2h2v-2v-2h2v-2h-8v-2h8v2h4v2h6v-2v-2h2v2h2v-2h10h2v2v2h2v2h2v-2h6v-2h2v-2V16H0.1v110H0v2h6v2H2z M94,126v2h-4v-2H94z M38,126v2
		h-4v-2H38z M10,126h2v2h-2V126z"/>
</g>
<g>
	<rect x="89" y="99.5" fill="#3D0814" width="2" height="2"/>
	<rect x="92" y="101.5" fill="#3D0814" width="2" height="2"/>
	<rect x="96" y="103.5" fill="#3D0814" width="2" height="2"/>
	<rect x="84" y="103.5" fill="#3D0814" width="2" height="2"/>
	<rect x="62" y="103.5" fill="#3D0814" width="2" height="2"/>
	<rect x="30" y="103.5" fill="#3D0814" width="2" height="2"/>
	<rect x="16" y="103.5" fill="#3D0814" width="2" height="2"/>
	<rect x="72" y="101.5" fill="#3D0814" width="2" height="2"/>
	<rect x="56" y="101.5" fill="#3D0814" width="2" height="2"/>
	<rect x="51" y="101.5" fill="#3D0814" width="2" height="2"/>
	<rect x="42" y="101.5" fill="#3D0814" width="2" height="2"/>
	<rect x="36" y="101.5" fill="#3D0814" width="2" height="2"/>
	<rect x="10" y="101.5" fill="#3D0814" width="2" height="2"/>
	<rect y="101.5" fill="#3D0814" width="2" height="2"/>
	<rect x="98" y="99.5" fill="#3D0814" width="2" height="2"/>
	<rect x="76" y="99.5" fill="#3D0814" width="4" height="2"/>
	<rect x="80" y="97.5" fill="#3D0814" width="2" height="2"/>
	<rect x="62" y="99.5" fill="#3D0814" width="4" height="2"/>
	<rect x="46" y="99.5" fill="#3D0814" width="4" height="2"/>
	<polygon fill="#3D0814" points="54,97.5 58,97.5 58,99.5 50,99.5 50,97.5 52,97.5 52,95.5 54,95.5 	"/>
	<rect x="34" y="97.5" fill="#3D0814" width="2" height="2"/>
	<rect x="26" y="97.5" fill="#3D0814" width="2" height="2"/>
	<rect x="32" y="99.5" fill="#3D0814" width="2" height="2"/>
	<rect x="24" y="99.5" fill="#3D0814" width="2" height="2"/>
	<rect x="6" y="99.5" fill="#3D0814" width="2" height="2"/>
	<rect x="2" y="99.5" fill="#3D0814" width="2" height="2"/>
	<polygon fill="#3D0814" points="16,95.5 18,95.5 18,97.5 20,97.5 20,99.5 22,99.5 22,101.5 20,101.5 20,103.5 18,103.5 18,101.5 
		18,99.5 14,99.5 14,97.5 16,97.5 	"/>
	<rect x="20" y="95.5" fill="#3D0814" width="2" height="2"/>
	<path fill="#3D0814" d="M94,97.5v-2h6v-2h-0.1V0H0v93.5v2h2v2h6v2h2v-2h2v-2v-2h2h10v2h2v-2h2v2v2h6v-2h4v-2h8v2h-8v2h2v2v2h2v-2
		v-2h6v-2h4v-2h4v2h4v2h6v2h6v-2h-2v-2h-2v-2h2v2h4v2h6v-2h-4v-2h4h2v2h2v-2h2v2h-2v2v2h2v-2h6v2h6v-2H94z M10,93.5v2H6v-2H10z
		 M66,93.5v2h-4v-2H66z M90,95.5h-2v-2h2V95.5z"/>
</g>
<g>
	<rect x="9" y="66" fill="#330610" width="2" height="2"/>
	<rect x="6" y="68" fill="#330610" width="2" height="2"/>
	<rect x="2" y="70" fill="#330610" width="2" height="2"/>
	<rect x="14" y="70" fill="#330610" width="2" height="2"/>
	<rect x="36" y="70" fill="#330610" width="2" height="2"/>
	<rect x="68" y="70" fill="#330610" width="2" height="2"/>
	<rect x="82" y="70" fill="#330610" width="2" height="2"/>
	<rect x="26" y="68" fill="#330610" width="2" height="2"/>
	<rect x="42" y="68" fill="#330610" width="2" height="2"/>
	<rect x="47" y="68" fill="#330610" width="2" height="2"/>
	<rect x="56" y="68" fill="#330610" width="2" height="2"/>
	<rect x="62" y="68" fill="#330610" width="2" height="2"/>
	<rect x="88" y="68" fill="#330610" width="2" height="2"/>
	<rect x="98" y="68" fill="#330610" width="2" height="2"/>
	<rect y="66" fill="#330610" width="2" height="2"/>
	<rect x="20" y="66" fill="#330610" width="4" height="2"/>
	<rect x="18" y="64" fill="#330610" width="2" height="2"/>
	<rect x="34" y="66" fill="#330610" width="4" height="2"/>
	<rect x="50" y="66" fill="#330610" width="4" height="2"/>
	<polygon fill="#330610" points="46,64 42,64 42,66 50,66 50,64 48,64 48,62 46,62 	"/>
	<rect x="64" y="64" fill="#330610" width="2" height="2"/>
	<rect x="72" y="64" fill="#330610" width="2" height="2"/>
	<rect x="66" y="66" fill="#330610" width="2" height="2"/>
	<rect x="74" y="66" fill="#330610" width="2" height="2"/>
	<rect x="92" y="66" fill="#330610" width="2" height="2"/>
	<rect x="96" y="66" fill="#330610" width="2" height="2"/>
	<polygon fill="#330610" points="84,62 82,62 82,64 80,64 80,66 78,66 78,68 80,68 80,70 82,70 82,68 82,66 86,66 86,64 84,64 	"/>
	<rect x="78" y="62" fill="#330610" width="2" height="2"/>
	<path fill="#330610" d="M2,64v2h6v-2h6v2h2v-2v-2h-2v-2h2v2h2v-2h2h4v2h-4v2h6v-2h4v-2h2v2h-2v2h-2v2h6v-2h6v-2h4v-2h4v2h4v2h6v2v2
		h2v-2v-2h2v-2h-8v-2h8v2h4v2h6v-2v-2h2v2h2v-2h10h2v2v2h2v2h2v-2h6v-2h2v-2V0H0.1v60H0v2h6v2H2z M94,60v2h-4v-2H94z M38,60v2h-4v-2
		H38z M10,60h2v2h-2V60z"/>
</g>
<g opacity="0.5">
	<rect x="9" y="338" fill="#490C1C" width="2" height="2"/>
	<rect x="6" y="336" fill="#490C1C" width="2" height="2"/>
	<rect x="2" y="334" fill="#490C1C" width="2" height="2"/>
	<rect x="14" y="334" fill="#490C1C" width="2" height="2"/>
	<rect x="36" y="334" fill="#490C1C" width="2" height="2"/>
	<rect x="68" y="334" fill="#490C1C" width="2" height="2"/>
	<rect x="82" y="334" fill="#490C1C" width="2" height="2"/>
	<rect x="26" y="336" fill="#490C1C" width="2" height="2"/>
	<rect x="42" y="336" fill="#490C1C" width="2" height="2"/>
	<rect x="47" y="336" fill="#490C1C" width="2" height="2"/>
	<rect x="56" y="336" fill="#490C1C" width="2" height="2"/>
	<rect x="62" y="336" fill="#490C1C" width="2" height="2"/>
	<rect x="88" y="336" fill="#490C1C" width="2" height="2"/>
	<rect x="98" y="336" fill="#490C1C" width="2" height="2"/>
	<rect y="338" fill="#490C1C" width="2" height="2"/>
	<rect x="20" y="338" fill="#490C1C" width="4" height="2"/>
	<rect x="18" y="340" fill="#490C1C" width="2" height="2"/>
	<rect x="34" y="338" fill="#490C1C" width="4" height="2"/>
	<rect x="50" y="338" fill="#490C1C" width="4" height="2"/>
	<polygon fill="#490C1C" points="46,342 42,342 42,340 50,340 50,342 48,342 48,344 46,344 	"/>
	<rect x="64" y="340" fill="#490C1C" width="2" height="2"/>
	<rect x="72" y="340" fill="#490C1C" width="2" height="2"/>
	<rect x="66" y="338" fill="#490C1C" width="2" height="2"/>
	<rect x="74" y="338" fill="#490C1C" width="2" height="2"/>
	<rect x="92" y="338" fill="#490C1C" width="2" height="2"/>
	<rect x="96" y="338" fill="#490C1C" width="2" height="2"/>
	<polygon fill="#490C1C" points="84,344 82,344 82,342 80,342 80,340 78,340 78,338 80,338 80,336 82,336 82,338 82,340 86,340 
		86,342 84,342 	"/>
	<rect x="78" y="342" fill="#490C1C" width="2" height="2"/>
	<path fill="#490C1C" d="M6,342v2H0v2h0.1v110H100V346v-2h-2v-2h-6v-2h-2v2h-2v2v2h-2H76v-2h-2v2h-2v-2v-2h-6v2h-4v2h-8v-2h8v-2h-2
		v-2v-2h-2v2v2h-6v2h-4v2h-4v-2h-4v-2h-6v-2h-6v2h2v2h2v2h-2v-2h-4v-2h-6v2h4v2h-4h-2v-2h-2v2h-2v-2h2v-2v-2h-2v2H8v-2H2v2H6z
		 M90,346v-2h4v2H90z M34,346v-2h4v2H34z M10,344h2v2h-2V344z"/>
</g>
<g opacity="0.5">
	<rect x="89" y="366" fill="#3F0915" width="2" height="2"/>
	<rect x="92" y="364" fill="#3F0915" width="2" height="2"/>
	<rect x="96" y="362" fill="#3F0915" width="2" height="2"/>
	<rect x="84" y="362" fill="#3F0915" width="2" height="2"/>
	<rect x="62" y="362" fill="#3F0915" width="2" height="2"/>
	<rect x="30" y="362" fill="#3F0915" width="2" height="2"/>
	<rect x="16" y="362" fill="#3F0915" width="2" height="2"/>
	<rect x="72" y="364" fill="#3F0915" width="2" height="2"/>
	<rect x="56" y="364" fill="#3F0915" width="2" height="2"/>
	<rect x="51" y="364" fill="#3F0915" width="2" height="2"/>
	<rect x="42" y="364" fill="#3F0915" width="2" height="2"/>
	<rect x="36" y="364" fill="#3F0915" width="2" height="2"/>
	<rect x="10" y="364" fill="#3F0915" width="2" height="2"/>
	<rect y="364" fill="#3F0915" width="2" height="2"/>
	<rect x="98" y="366" fill="#3F0915" width="2" height="2"/>
	<rect x="76" y="366" fill="#3F0915" width="4" height="2"/>
	<rect x="80" y="368" fill="#3F0915" width="2" height="2"/>
	<rect x="62" y="366" fill="#3F0915" width="4" height="2"/>
	<rect x="46" y="366" fill="#3F0915" width="4" height="2"/>
	<polygon fill="#3F0915" points="54,370 58,370 58,368 50,368 50,370 52,370 52,372 54,372 	"/>
	<rect x="34" y="368" fill="#3F0915" width="2" height="2"/>
	<rect x="26" y="368" fill="#3F0915" width="2" height="2"/>
	<rect x="32" y="366" fill="#3F0915" width="2" height="2"/>
	<rect x="24" y="366" fill="#3F0915" width="2" height="2"/>
	<rect x="6" y="366" fill="#3F0915" width="2" height="2"/>
	<rect x="2" y="366" fill="#3F0915" width="2" height="2"/>
	<polygon fill="#3F0915" points="16,372 18,372 18,370 20,370 20,368 22,368 22,366 20,366 20,364 18,364 18,366 18,368 14,368 
		14,370 16,370 	"/>
	<rect x="20" y="370" fill="#3F0915" width="2" height="2"/>
	<path fill="#3F0915" d="M98,370v-2h-6v2h-6v-2h-2v2v2h2v2h-2v-2h-2v2h-2h-4v-2h4v-2h-6v2h-4v2h-2v-2h2v-2h2v-2h-6v2h-6v2h-4v2h-4
		v-2h-4v-2h-6v-2v-2h-2v2v2h-2v2h8v2h-8v-2h-4v-2h-6v2v2h-2v-2h-2v2H14h-2v-2v-2h-2v-2H8v2H2v2H0v2v110h99.9V374h0.1v-2h-6v-2H98z
		 M6,374v-2h4v2H6z M62,374v-2h4v2H62z M90,374h-2v-2h2V374z"/>
</g>
<g>
	<rect x="9" y="398.5" fill="#3D0814" width="2" height="2"/>
	<rect x="6" y="396.5" fill="#3D0814" width="2" height="2"/>
	<rect x="2" y="394.5" fill="#3D0814" width="2" height="2"/>
	<rect x="14" y="394.5" fill="#3D0814" width="2" height="2"/>
	<rect x="36" y="394.5" fill="#3D0814" width="2" height="2"/>
	<rect x="68" y="394.5" fill="#3D0814" width="2" height="2"/>
	<rect x="82" y="394.5" fill="#3D0814" width="2" height="2"/>
	<rect x="26" y="396.5" fill="#3D0814" width="2" height="2"/>
	<rect x="42" y="396.5" fill="#3D0814" width="2" height="2"/>
	<rect x="47" y="396.5" fill="#3D0814" width="2" height="2"/>
	<rect x="56" y="396.5" fill="#3D0814" width="2" height="2"/>
	<rect x="62" y="396.5" fill="#3D0814" width="2" height="2"/>
	<rect x="88" y="396.5" fill="#3D0814" width="2" height="2"/>
	<rect x="98" y="396.5" fill="#3D0814" width="2" height="2"/>
	<rect y="398.5" fill="#3D0814" width="2" height="2"/>
	<rect x="20" y="398.5" fill="#3D0814" width="4" height="2"/>
	<rect x="18" y="400.5" fill="#3D0814" width="2" height="2"/>
	<rect x="34" y="398.5" fill="#3D0814" width="4" height="2"/>
	<rect x="50" y="398.5" fill="#3D0814" width="4" height="2"/>
	<polygon fill="#3D0814" points="46,402.5 42,402.5 42,400.5 50,400.5 50,402.5 48,402.5 48,404.5 46,404.5 	"/>
	<rect x="64" y="400.5" fill="#3D0814" width="2" height="2"/>
	<rect x="72" y="400.5" fill="#3D0814" width="2" height="2"/>
	<rect x="66" y="398.5" fill="#3D0814" width="2" height="2"/>
	<rect x="74" y="398.5" fill="#3D0814" width="2" height="2"/>
	<rect x="92" y="398.5" fill="#3D0814" width="2" height="2"/>
	<rect x="96" y="398.5" fill="#3D0814" width="2" height="2"/>
	<polygon fill="#3D0814" points="84,404.5 82,404.5 82,402.5 80,402.5 80,400.5 78,400.5 78,398.5 80,398.5 80,396.5 82,396.5 
		82,398.5 82,400.5 86,400.5 86,402.5 84,402.5 	"/>
	<rect x="78" y="402.5" fill="#3D0814" width="2" height="2"/>
	<path fill="#3D0814" d="M6,402.5v2H0v2h0.1V500H100v-93.5v-2h-2v-2h-6v-2h-2v2h-2v2v2h-2H76v-2h-2v2h-2v-2v-2h-6v2h-4v2h-8v-2h8v-2
		h-2v-2v-2h-2v2v2h-6v2h-4v2h-4v-2h-4v-2h-6v-2h-6v2h2v2h2v2h-2v-2h-4v-2h-6v2h4v2h-4h-2v-2h-2v2h-2v-2h2v-2v-2h-2v2H8v-2H2v2H6z
		 M90,406.5v-2h4v2H90z M34,406.5v-2h4v2H34z M10,404.5h2v2h-2V404.5z"/>
</g>
<g>
	<rect x="89" y="432" fill="#330610" width="2" height="2"/>
	<rect x="92" y="430" fill="#330610" width="2" height="2"/>
	<rect x="96" y="428" fill="#330610" width="2" height="2"/>
	<rect x="84" y="428" fill="#330610" width="2" height="2"/>
	<rect x="62" y="428" fill="#330610" width="2" height="2"/>
	<rect x="30" y="428" fill="#330610" width="2" height="2"/>
	<rect x="16" y="428" fill="#330610" width="2" height="2"/>
	<rect x="72" y="430" fill="#330610" width="2" height="2"/>
	<rect x="56" y="430" fill="#330610" width="2" height="2"/>
	<rect x="51" y="430" fill="#330610" width="2" height="2"/>
	<rect x="42" y="430" fill="#330610" width="2" height="2"/>
	<rect x="36" y="430" fill="#330610" width="2" height="2"/>
	<rect x="10" y="430" fill="#330610" width="2" height="2"/>
	<rect y="430" fill="#330610" width="2" height="2"/>
	<rect x="98" y="432" fill="#330610" width="2" height="2"/>
	<rect x="76" y="432" fill="#330610" width="4" height="2"/>
	<rect x="80" y="434" fill="#330610" width="2" height="2"/>
	<rect x="62" y="432" fill="#330610" width="4" height="2"/>
	<rect x="46" y="432" fill="#330610" width="4" height="2"/>
	<polygon fill="#330610" points="54,436 58,436 58,434 50,434 50,436 52,436 52,438 54,438 	"/>
	<rect x="34" y="434" fill="#330610" width="2" height="2"/>
	<rect x="26" y="434" fill="#330610" width="2" height="2"/>
	<rect x="32" y="432" fill="#330610" width="2" height="2"/>
	<rect x="24" y="432" fill="#330610" width="2" height="2"/>
	<rect x="6" y="432" fill="#330610" width="2" height="2"/>
	<rect x="2" y="432" fill="#330610" width="2" height="2"/>
	<polygon fill="#330610" points="16,438 18,438 18,436 20,436 20,434 22,434 22,432 20,432 20,430 18,430 18,432 18,434 14,434 
		14,436 16,436 	"/>
	<rect x="20" y="436" fill="#330610" width="2" height="2"/>
	<path fill="#330610" d="M98,436v-2h-6v2h-6v-2h-2v2v2h2v2h-2v-2h-2v2h-2h-4v-2h4v-2h-6v2h-4v2h-2v-2h2v-2h2v-2h-6v2h-6v2h-4v2h-4
		v-2h-4v-2h-6v-2v-2h-2v2v2h-2v2h8v2h-8v-2h-4v-2h-6v2v2h-2v-2h-2v2H14h-2v-2v-2h-2v-2H8v2H2v2H0v2v60h99.9v-60h0.1v-2h-6v-2H98z
		 M6,440v-2h4v2H6z M62,440v-2h4v2H62z M90,440h-2v-2h2V440z"/>
</g>
</svg>
