<?xml version="1.0" encoding="utf-8"?>
<!-- Generator: Adobe Illustrator 15.1.0, SVG Export Plug-In . SVG Version: 6.00 Build 0)  -->
<!DOCTYPE svg PUBLIC "-//W3C//DTD SVG 1.1//EN" "http://www.w3.org/Graphics/SVG/1.1/DTD/svg11.dtd">
<svg version="1.1" id="Layer_1" xmlns="http://www.w3.org/2000/svg" xmlns:xlink="http://www.w3.org/1999/xlink" x="0px" y="0px"
	 width="100px" height="500px" viewBox="0 0 100 500" enable-background="new 0 0 100 500" xml:space="preserve">
<rect fill="#510710" width="100" height="500"/>
<g>
	<rect x="9" y="108" fill="#630B1A" width="2" height="2"/>
	<rect x="6" y="110" fill="#630B1A" width="2" height="2"/>
	<rect x="2" y="112" fill="#630B1A" width="2" height="2"/>
	<rect x="14" y="112" fill="#630B1A" width="2" height="2"/>
	<rect x="36" y="112" fill="#630B1A" width="2" height="2"/>
	<rect x="68" y="112" fill="#630B1A" width="2" height="2"/>
	<rect x="82" y="112" fill="#630B1A" width="2" height="2"/>
	<rect x="26" y="110" fill="#630B1A" width="2" height="2"/>
	<rect x="42" y="110" fill="#630B1A" width="2" height="2"/>
	<rect x="47" y="110" fill="#630B1A" width="2" height="2"/>
	<rect x="56" y="110" fill="#630B1A" width="2" height="2"/>
	<rect x="62" y="110" fill="#630B1A" width="2" height="2"/>
	<rect x="88" y="110" fill="#630B1A" width="2" height="2"/>
	<rect x="98" y="110" fill="#630B1A" width="2" height="2"/>
	<rect y="108" fill="#630B1A" width="2" height="2"/>
	<rect x="20" y="108" fill="#630B1A" width="4" height="2"/>
	<rect x="18" y="106" fill="#630B1A" width="2" height="2"/>
	<rect x="34" y="108" fill="#630B1A" width="4" height="2"/>
	<rect x="50" y="108" fill="#630B1A" width="4" height="2"/>
	<polygon fill="#630B1A" points="46,106 42,106 42,108 50,108 50,106 48,106 48,104 46,104 	"/>
	<rect x="64" y="106" fill="#630B1A" width="2" height="2"/>
	<rect x="72" y="106" fill="#630B1A" width="2" height="2"/>
	<rect x="66" y="108" fill="#630B1A" width="2" height="2"/>
	<rect x="74" y="108" fill="#630B1A" width="2" height="2"/>
	<rect x="92" y="108" fill="#630B1A" width="2" height="2"/>
	<rect x="96" y="108" fill="#630B1A" width="2" height="2"/>
	<polygon fill="#630B1A" points="84,104 82,104 82,106 80,106 80,108 78,108 78,110 80,110 80,112 82,112 82,110 82,108 86,108 
		86,106 84,106 	"/>
	<rect x="78" y="104" fill="#630B1A" width="2" height="2"/>
	<path fill="#630B1A" d="M99.9,102V0H0v102v2h6v2H2v2h6v-2h6v2h2v-2v-2h-2v-2h2v2h2v-2h2h4v2h-4v2h6v-2h4v-2h2v2h-2v2h-2v2h6v-2h6
		v-2h4v-2h4v2h4v2h6v2v2h2v-2v-2h2v-2h-8v-2h8v2h4v2h6v-2v-2h2v2h2v-2h10h2v2v2h2v2h2v-2h6v-2h2v-2H99.9z M12,104h-2v-2h2V104z
		 M34,104v-2h4v2H34z M90,104v-2h4v2H90z"/>
</g>
<g>
	<rect x="89" y="382" fill="#440812" width="2" height="2"/>
	<rect x="92" y="380" fill="#440812" width="2" height="2"/>
	<rect x="96" y="378" fill="#440812" width="2" height="2"/>
	<rect x="84" y="378" fill="#440812" width="2" height="2"/>
	<rect x="62" y="378" fill="#440812" width="2" height="2"/>
	<rect x="30" y="378" fill="#440812" width="2" height="2"/>
	<rect x="16" y="378" fill="#440812" width="2" height="2"/>
	<rect x="72" y="380" fill="#440812" width="2" height="2"/>
	<rect x="56" y="380" fill="#440812" width="2" height="2"/>
	<rect x="51" y="380" fill="#440812" width="2" height="2"/>
	<rect x="42" y="380" fill="#440812" width="2" height="2"/>
	<rect x="36" y="380" fill="#440812" width="2" height="2"/>
	<rect x="10" y="380" fill="#440812" width="2" height="2"/>
	<rect y="380" fill="#440812" width="2" height="2"/>
	<rect x="98" y="382" fill="#440812" width="2" height="2"/>
	<rect x="76" y="382" fill="#440812" width="4" height="2"/>
	<rect x="80" y="384" fill="#440812" width="2" height="2"/>
	<rect x="62" y="382" fill="#440812" width="4" height="2"/>
	<rect x="46" y="382" fill="#440812" width="4" height="2"/>
	<polygon fill="#440812" points="54,386 58,386 58,384 50,384 50,386 52,386 52,388 54,388 	"/>
	<rect x="34" y="384" fill="#440812" width="2" height="2"/>
	<rect x="26" y="384" fill="#440812" width="2" height="2"/>
	<rect x="32" y="382" fill="#440812" width="2" height="2"/>
	<rect x="24" y="382" fill="#440812" width="2" height="2"/>
	<rect x="6" y="382" fill="#440812" width="2" height="2"/>
	<rect x="2" y="382" fill="#440812" width="2" height="2"/>
	<polygon fill="#440812" points="16,388 18,388 18,386 20,386 20,384 22,384 22,382 20,382 20,380 18,380 18,382 18,384 14,384 
		14,386 16,386 	"/>
	<rect x="20" y="386" fill="#440812" width="2" height="2"/>
	<path fill="#440812" d="M98,386v-2h-6v2h-6v-2h-2v2v2h2v2h-2v-2h-2v2h-2h-4v-2h4v-2h-6v2h-4v2h-2v-2h2v-2h2v-2h-6v2h-6v2h-4v2h-4
		v-2h-4v-2h-6v-2v-2h-2v2v2h-2v2h8v2h-8v-2h-4v-2h-6v2v2h-2v-2h-2v2H14h-2v-2v-2h-2v-2H8v2H2v2H0v2v110h99.9V390h0.1v-2h-6v-2H98z
		 M6,390v-2h4v2H6z M62,390v-2h4v2H62z M90,390h-2v-2h2V390z"/>
</g>
</svg>
