<?xml version="1.0" encoding="utf-8"?>
<!-- Generator: Adobe Illustrator 15.1.0, SVG Export Plug-In . SVG Version: 6.00 Build 0)  -->
<!DOCTYPE svg PUBLIC "-//W3C//DTD SVG 1.1//EN" "http://www.w3.org/Graphics/SVG/1.1/DTD/svg11.dtd">
<svg version="1.1" xmlns="http://www.w3.org/2000/svg" xmlns:xlink="http://www.w3.org/1999/xlink" x="0px" y="0px" width="86px"
	 height="30px" viewBox="0 0 86 30" enable-background="new 0 0 86 30" xml:space="preserve">
<g id="Layer_2" display="none">
	<rect x="292" y="-10" display="inline" fill="#323031" width="72" height="64"/>
	<rect x="40" y="-140" display="inline" fill="#323031" width="64" height="64"/>
	<rect x="40" y="-236" display="inline" fill="#323031" width="64" height="64"/>
	<rect x="-58" y="-238" display="inline" fill="#323031" width="64" height="64"/>
	<rect x="40" y="-324" display="inline" fill="#323031" width="64" height="64"/>
	<rect x="40" y="-416" display="inline" fill="#323031" width="64" height="64"/>
	<rect x="124" y="-236" display="inline" fill="#323031" width="64" height="64"/>
	<rect x="124" y="-324" display="inline" fill="#323031" width="64" height="64"/>
	<rect x="124" y="-416" display="inline" fill="#323031" width="64" height="64"/>
	<rect x="220" y="-236" display="inline" fill="#323031" width="64" height="64"/>
	<rect x="220" y="-324" display="inline" fill="#323031" width="64" height="64"/>
	<rect x="220" y="-416" display="inline" fill="#323031" width="64" height="64"/>
	<rect x="308" y="-236" display="inline" fill="#323031" width="64" height="64"/>
	<rect x="201.7" y="-152" display="inline" fill="#323031" width="306" height="102"/>
	<rect x="308" y="-324" display="inline" fill="#323031" width="64" height="64"/>
	<rect x="308" y="-416" display="inline" fill="#323031" width="64" height="64"/>
	<rect x="214" y="-10" display="inline" fill="#323031" width="72" height="64"/>
	<rect x="376" y="-10" display="inline" fill="#323031" width="72" height="64"/>
	<rect x="460" y="-10" display="inline" fill="#323031" width="72" height="64"/>
	<rect x="-48" y="-130" display="inline" fill="#404041" width="14" height="32"/>
</g>
<g id="Layer_1">
	<rect x="4" y="14" fill="#D88FB5" width="2" height="2"/>
	<rect x="22" y="14" fill="#D88FB5" width="2" height="2"/>
	<rect x="28" y="14" fill="#D88FB5" width="2" height="2"/>
	<rect x="38" y="14" fill="#D88FB5" width="2" height="2"/>
	<rect x="2" y="16" fill="#D88FB5" width="2" height="2"/>
	<rect x="64" y="16" fill="#D88FB5" width="2" height="2"/>
	<rect x="72" y="16" fill="#D88FB5" width="2" height="2"/>
	<rect x="82" y="16" fill="#D88FB5" width="2" height="2"/>
	<rect x="74" y="14" fill="#D88FB5" width="8" height="2"/>
	<rect y="18" fill="#D88FB5" width="2" height="2"/>
	<rect x="66" y="18" fill="#D88FB5" width="2" height="2"/>
	<rect x="68" y="18" fill="#D88FB5" width="2" height="2"/>
	<rect x="70" y="18" fill="#D88FB5" width="2" height="2"/>
	<rect x="84" y="18" fill="#D88FB5" width="2" height="2"/>
	<rect x="24" y="16" fill="#D88FB5" width="4" height="2"/>
	<rect x="40" y="16" fill="#D88FB5" width="4" height="2"/>
	<rect x="10" y="10" fill="#D88FB5" width="2" height="2"/>
	<rect x="12" y="10" fill="#D88FB5" width="6" height="2"/>
	<rect x="30" y="12" fill="#D88FB5" width="8" height="2"/>
	<rect x="6" y="12" fill="#D88FB5" width="4" height="2"/>
	<rect x="18" y="12" fill="#D88FB5" width="4" height="2"/>
	<rect x="68" y="10" fill="#D88FB5" width="4" height="2"/>
	<rect y="20" fill="#FBC9E1" width="86" height="10"/>
	<rect x="2" y="18" fill="#FBC9E1" width="64" height="2"/>
	<rect x="4" y="16" fill="#FBC9E1" width="20" height="2"/>
	<rect x="6" y="14" fill="#FBC9E1" width="16" height="2"/>
	<rect x="46" y="14" fill="#FBC9E1" width="16" height="2"/>
	<rect x="44" y="16" fill="#FBC9E1" width="20" height="2"/>
	<rect x="28" y="16" fill="#FBC9E1" width="12" height="2"/>
	<rect x="30" y="14" fill="#FBC9E1" width="8" height="2"/>
	<rect x="10" y="12" fill="#FBC9E1" width="8" height="2"/>
	<rect x="50" y="12" fill="#FBC9E1" width="8" height="2"/>
	<rect x="74" y="16" fill="#FBC9E1" width="8" height="2"/>
	<rect x="66" y="4" fill="#FBC9E1" width="10" height="2"/>
	<rect x="66" y="6" fill="#FBC9E1" width="10" height="2"/>
	<rect x="66" y="8" fill="#FBC9E1" width="10" height="2"/>
	<rect x="66" y="2" fill="#FBC9E1" width="10" height="2"/>
	<rect x="72" y="18" fill="#FBC9E1" width="12" height="2"/>
	<rect x="66" y="8" fill="#D88FB5" width="2" height="2"/>
	<rect x="64" y="6" fill="#D88FB5" width="2" height="2"/>
	<rect x="64" y="4" fill="#D88FB5" width="2" height="2"/>
	<rect x="66" y="2" fill="#D88FB5" width="2" height="2"/>
	<rect x="74" y="2" fill="#D88FB5" width="2" height="2"/>
	<rect x="76" y="4" fill="#D88FB5" width="2" height="2"/>
	<rect x="76" y="6" fill="#D88FB5" width="2" height="4"/>
	<rect x="72" y="8" fill="#D88FB5" width="2" height="2"/>
	<rect x="74" y="10" fill="#D88FB5" width="2" height="2"/>
	<rect x="68" fill="#D88FB5" width="6" height="2"/>
	<rect x="44" y="14" fill="#D88FB5" width="2" height="2"/>
	<rect x="62" y="14" fill="#D88FB5" width="2" height="2"/>
	<rect x="50" y="10" fill="#D88FB5" width="2" height="2"/>
	<rect x="52" y="10" fill="#D88FB5" width="6" height="2"/>
	<rect x="46" y="12" fill="#D88FB5" width="4" height="2"/>
	<rect x="58" y="12" fill="#D88FB5" width="4" height="2"/>
	<rect x="10" y="12" fill="#E0A2C6" width="8" height="2"/>
	<rect x="6" y="14" fill="#E0A2C6" width="4" height="2"/>
	<rect x="24" y="18" fill="#E0A2C6" width="4" height="2"/>
	<rect x="18" y="14" fill="#E0A2C6" width="4" height="2"/>
	<rect x="4" y="16" fill="#E0A2C6" width="2" height="2"/>
	<rect x="22" y="16" fill="#E0A2C6" width="2" height="2"/>
	<rect x="28" y="16" fill="#E0A2C6" width="2" height="2"/>
	<rect x="38" y="16" fill="#E0A2C6" width="2" height="2"/>
	<rect x="46" y="14" fill="#E0A2C6" width="4" height="2"/>
	<rect x="58" y="14" fill="#E0A2C6" width="4" height="2"/>
	<rect x="74" y="16" fill="#E0A2C6" width="8" height="2"/>
	<rect x="66" y="20" fill="#E0A2C6" width="6" height="2"/>
	<rect x="68" y="2" fill="#E0A2C6" width="6" height="2"/>
	<rect x="68" y="8" fill="#E0A2C6" width="4" height="2"/>
	<rect x="74" y="8" fill="#E0A2C6" width="2" height="2"/>
	<rect x="66" y="4" fill="#E0A2C6" width="2" height="2"/>
	<rect x="74" y="6" fill="#E0A2C6" width="2" height="2"/>
	<rect x="50" y="12" fill="#E0A2C6" width="8" height="2"/>
	<rect x="44" y="16" fill="#E0A2C6" width="2" height="2"/>
	<rect x="62" y="16" fill="#E0A2C6" width="2" height="2"/>
	<rect x="64" y="18" fill="#E0A2C6" width="2" height="2"/>
	<rect x="72" y="18" fill="#E0A2C6" width="2" height="2"/>
	<rect x="82" y="18" fill="#E0A2C6" width="2" height="2"/>
	<rect x="84" y="20" fill="#E0A2C6" width="2" height="2"/>
	<rect x="40" y="18" fill="#E0A2C6" width="4" height="2"/>
	<rect x="30" y="14" fill="#E0A2C6" width="8" height="2"/>
	<rect x="2" y="18" fill="#E0A2C6" width="2" height="2"/>
	<rect y="20" fill="#E0A2C6" width="2" height="2"/>
	<rect x="10" y="14" fill="#EDBEDB" width="8" height="2"/>
	<rect x="6" y="16" fill="#EDBEDB" width="4" height="2"/>
	<rect x="24" y="20" fill="#EDBEDB" width="4" height="2"/>
	<rect x="18" y="16" fill="#EDBEDB" width="4" height="2"/>
	<rect x="4" y="18" fill="#EDBEDB" width="2" height="2"/>
	<rect x="22" y="18" fill="#EDBEDB" width="2" height="2"/>
	<rect x="28" y="18" fill="#EDBEDB" width="2" height="2"/>
	<rect x="38" y="18" fill="#EDBEDB" width="2" height="2"/>
	<rect x="46" y="16" fill="#EDBEDB" width="4" height="2"/>
	<rect x="58" y="16" fill="#EDBEDB" width="4" height="2"/>
	<rect x="74" y="18" fill="#EDBEDB" width="8" height="2"/>
	<rect x="66" y="22" fill="#EDBEDB" width="6" height="2"/>
	<rect x="50" y="14" fill="#EDBEDB" width="8" height="2"/>
	<rect x="44" y="18" fill="#EDBEDB" width="2" height="2"/>
	<rect x="62" y="18" fill="#EDBEDB" width="2" height="2"/>
	<rect x="64" y="20" fill="#EDBEDB" width="2" height="2"/>
	<rect x="72" y="20" fill="#EDBEDB" width="2" height="2"/>
	<rect x="82" y="20" fill="#EDBEDB" width="2" height="2"/>
	<rect x="84" y="22" fill="#EDBEDB" width="2" height="2"/>
	<rect x="40" y="20" fill="#EDBEDB" width="4" height="2"/>
	<rect x="30" y="16" fill="#EDBEDB" width="8" height="2"/>
	<rect x="2" y="20" fill="#EDBEDB" width="2" height="2"/>
	<rect y="22" fill="#EDBEDB" width="2" height="2"/>
</g>
</svg>
