<?xml version="1.0" encoding="utf-8"?>
<!-- Generator: Adobe Illustrator 15.1.0, SVG Export Plug-In . SVG Version: 6.00 Build 0)  -->
<!DOCTYPE svg PUBLIC "-//W3C//DTD SVG 1.1//EN" "http://www.w3.org/Graphics/SVG/1.1/DTD/svg11.dtd">
<svg version="1.1" xmlns="http://www.w3.org/2000/svg" xmlns:xlink="http://www.w3.org/1999/xlink" x="0px" y="0px" width="14px"
	 height="32px" viewBox="0 0 14 32" enable-background="new 0 0 14 32" xml:space="preserve">
<g id="Layer_2" display="none">
	<rect x="340" y="120" display="inline" fill="#323031" width="72" height="64"/>
	<rect x="88" y="-10" display="inline" fill="#323031" width="64" height="64"/>
	<rect x="88" y="-106" display="inline" fill="#323031" width="64" height="64"/>
	<rect x="88" y="-194" display="inline" fill="#323031" width="64" height="64"/>
	<rect x="88" y="-286" display="inline" fill="#323031" width="64" height="64"/>
	<rect x="172" y="-106" display="inline" fill="#323031" width="64" height="64"/>
	<rect x="172" y="-194" display="inline" fill="#323031" width="64" height="64"/>
	<rect x="172" y="-286" display="inline" fill="#323031" width="64" height="64"/>
	<rect x="268" y="-106" display="inline" fill="#323031" width="64" height="64"/>
	<rect x="268" y="-194" display="inline" fill="#323031" width="64" height="64"/>
	<rect x="268" y="-286" display="inline" fill="#323031" width="64" height="64"/>
	<rect x="356" y="-106" display="inline" fill="#323031" width="64" height="64"/>
	<rect x="249.667" y="-22" display="inline" fill="#323031" width="306" height="102"/>
	<rect x="356" y="-194" display="inline" fill="#323031" width="64" height="64"/>
	<rect x="356" y="-286" display="inline" fill="#323031" width="64" height="64"/>
	<rect x="262" y="120" display="inline" fill="#323031" width="72" height="64"/>
	<rect x="424" y="120" display="inline" fill="#323031" width="72" height="64"/>
	<rect x="508" y="120" display="inline" fill="#323031" width="72" height="64"/>
	<rect display="inline" fill="#404041" width="14" height="32"/>
</g>
<g id="Layer_1">
	<g>
		<polygon fill="#FFFFFF" points="10,24 8,24 4,24 4,26 2,26 2,30 4,30 4,32 10,32 10,30 12,30 12,26 10,26 		"/>
		<polygon fill="#FFFFFF" points="12,2 12,0 8,0 2,0 2,2 0,2 0,10 2,10 2,16 4,16 4,20 6,20 6,22 8,22 8,20 10,20 10,16 12,16 
			12,10 14,10 14,2 		"/>
	</g>
	<polygon fill="#FFFFFF" points="2,2 2,10 4,10 4,16 6,16 6,20 8,20 8,16 10,16 10,10 12,10 12,2 	"/>
	<rect x="4" y="26" fill="#FFFFFF" width="6" height="4"/>
	<g>
		<polygon fill="#D0D2D3" points="10,2 8,2 8,4 10,4 10,10 12,10 12,2 		"/>
		<rect x="8" y="10" fill="#D0D2D3" width="2" height="6"/>
		<rect x="6" y="18" fill="#D0D2D3" width="2" height="2"/>
		<rect x="8" y="26" fill="#D0D2D3" width="2" height="4"/>
	</g>
	<g>
		<rect x="4" y="30" fill="#FAAF40" width="6" height="2"/>
		<rect x="4" y="24" fill="#FAAF40" width="4" height="2"/>
		<rect x="2" y="26" fill="#FAAF40" width="2" height="4"/>
	</g>
	<g>
		<rect x="6" y="20" fill="#FAAF40" width="2" height="2"/>
		<rect x="2" y="10" fill="#FAAF40" width="2" height="6"/>
		<rect y="2" fill="#FAAF40" width="2" height="8"/>
		<rect x="4" y="16" fill="#FAAF40" width="2" height="4"/>
		<rect x="2" fill="#FAAF40" width="6" height="2"/>
	</g>
	<g>
		<rect x="8" y="16" fill="#F6921E" width="2" height="4"/>
		<rect x="8" y="24" fill="#F6921E" width="2" height="2"/>
		<rect x="10" y="10" fill="#F6921E" width="2" height="6"/>
		<rect x="12" y="2" fill="#F6921E" width="2" height="8"/>
		<rect x="10" y="26" fill="#F6921E" width="2" height="4"/>
		<rect x="8" fill="#F6921E" width="4" height="2"/>
	</g>
</g>
</svg>
