<?xml version="1.0" encoding="utf-8"?>
<!-- Generator: Adobe Illustrator 15.1.0, SVG Export Plug-In . SVG Version: 6.00 Build 0)  -->
<!DOCTYPE svg PUBLIC "-//W3C//DTD SVG 1.1//EN" "http://www.w3.org/Graphics/SVG/1.1/DTD/svg11.dtd">
<svg version="1.1" id="Layer_1" xmlns="http://www.w3.org/2000/svg" xmlns:xlink="http://www.w3.org/1999/xlink" x="0px" y="0px"
	 width="256px" height="192px" viewBox="0 0 256 192" enable-background="new 0 0 256 192" xml:space="preserve">
<g id="Layer_2" display="none">
	<rect x="252" y="354" display="inline" fill="#323031" width="72" height="64"/>
	<rect y="224" display="inline" fill="#323031" width="64" height="64"/>
	<rect y="128" display="inline" fill="#323031" width="64" height="64"/>
	<rect y="40" display="inline" fill="#323031" width="64" height="64"/>
	<rect y="-52" display="inline" fill="#323031" width="64" height="64"/>
	<rect x="84" y="128" display="inline" fill="#323031" width="64" height="64"/>
	<rect x="84" y="40" display="inline" fill="#323031" width="64" height="64"/>
	<rect x="84" y="-52" display="inline" fill="#323031" width="64" height="64"/>
	<rect x="180" y="128" display="inline" fill="#323031" width="64" height="64"/>
	<rect x="180" y="40" display="inline" fill="#323031" width="64" height="64"/>
	<rect x="180" y="-52" display="inline" fill="#323031" width="64" height="64"/>
	<rect x="268" y="128" display="inline" fill="#323031" width="64" height="64"/>
	<rect x="161.667" y="212" display="inline" fill="#323031" width="306" height="102"/>
	<rect x="268" y="40" display="inline" fill="#323031" width="64" height="64"/>
	<rect x="268" y="-52" display="inline" fill="#323031" width="64" height="64"/>
	<rect x="174" y="354" display="inline" fill="#323031" width="72" height="64"/>
	<rect x="336" y="354" display="inline" fill="#323031" width="72" height="64"/>
	<rect x="420" y="354" display="inline" fill="#323031" width="72" height="64"/>
</g>
<g id="Layer_1_1_">
	<g>
		<polygon opacity="0.11" fill="#EF529A" enable-background="new    " points="38,154 34,154 34,152 30,152 30,154 26,154 26,158 
			24,158 24,162 26,162 26,166 30,166 30,168 34,168 34,166 38,166 38,162 40,162 40,158 38,158 		"/>
		<rect x="28" y="156" fill="#EF529A" width="8" height="8"/>
		<g>
			<polygon fill="#F179AF" points="32,156 30,156 28,156 28,158 28,160 30,160 30,158 32,158 			"/>
			<polygon fill="#F179AF" points="34,160 34,162 32,162 32,164 34,164 36,164 36,162 36,160 			"/>
		</g>
	</g>
	<g>
		<rect x="223" y="138" opacity="0.11" fill="#EF529A" enable-background="new    " width="2" height="2"/>
		<rect x="223" y="180" opacity="0.11" fill="#EF529A" enable-background="new    " width="2" height="2"/>
		<rect x="202" y="159" opacity="0.11" fill="#EF529A" enable-background="new    " width="2" height="2"/>
		<rect x="244" y="159" opacity="0.11" fill="#EF529A" enable-background="new    " width="2" height="2"/>
		<polygon opacity="0.11" fill="#EF529A" enable-background="new    " points="240,148 238,148 238,146 236,146 236,144 232,144 
			232,142 216,142 216,144 212,144 212,146 210,146 210,148 208,148 208,152 206,152 206,168 208,168 208,172 210,172 210,174 
			212,174 212,176 216,176 216,178 232,178 232,176 236,176 236,174 238,174 238,172 240,172 240,168 242,168 242,152 240,152 		"/>
		<polygon fill="#EF529A" points="234,154 232,154 232,152 230,152 230,150 218,150 218,152 216,152 216,154 214,154 214,166 
			216,166 216,168 218,168 218,170 230,170 230,168 232,168 232,166 234,166 		"/>
		<g>
			<polygon fill="#F179AF" points="224,156 224,158 222,158 222,160 220,160 220,162 220,164 222,164 224,164 224,162 226,162 
				226,160 228,160 228,158 228,156 226,156 			"/>
			<rect x="228" y="154" fill="#F179AF" width="2" height="2"/>
			<rect x="230" y="152" fill="#F179AF" width="2" height="2"/>
			<rect x="218" y="164" fill="#F179AF" width="2" height="2"/>
			<rect x="216" y="166" fill="#F179AF" width="2" height="2"/>
		</g>
	</g>
	<g>
		<rect x="95" y="138" opacity="0.11" fill="#EF529A" enable-background="new    " width="2" height="2"/>
		<rect x="95" y="180" opacity="0.11" fill="#EF529A" enable-background="new    " width="2" height="2"/>
		<rect x="116" y="159" opacity="0.11" fill="#EF529A" enable-background="new    " width="2" height="2"/>
		<rect x="74" y="159" opacity="0.11" fill="#EF529A" enable-background="new    " width="2" height="2"/>
		<polygon opacity="0.11" fill="#EF529A" enable-background="new    " points="110,152 108,152 108,148 104,148 104,146 100,146 
			100,144 92,144 92,146 88,146 88,148 84,148 84,152 82,152 82,156 80,156 80,164 82,164 82,168 84,168 84,172 88,172 88,174 
			92,174 92,176 100,176 100,174 104,174 104,172 108,172 108,168 110,168 110,164 112,164 112,156 110,156 		"/>
		<polygon fill="#EF529A" points="102,156 102,154 100,154 100,152 92,152 92,154 90,154 90,156 88,156 88,164 90,164 90,166 
			92,166 92,168 100,168 100,166 102,166 102,164 104,164 104,156 		"/>
		<g>
			<polygon fill="#F179AF" points="102,156 102,158 100,158 100,160 100,162 98,162 98,164 96,164 94,164 94,166 92,166 92,168 
				94,168 96,168 98,168 98,166 100,166 100,164 102,164 102,162 104,162 104,160 104,158 104,156 			"/>
			<polygon fill="#F179AF" points="92,160 92,158 94,158 94,156 96,156 98,156 98,154 100,154 100,152 98,152 96,152 94,152 94,154 
				92,154 92,156 90,156 90,158 88,158 88,160 88,162 88,164 90,164 90,162 92,162 			"/>
		</g>
	</g>
	<g>
		<rect x="182" y="144" opacity="0.11" fill="#EF529A" enable-background="new    " width="2" height="2"/>
		<rect x="136" y="144" opacity="0.11" fill="#EF529A" enable-background="new    " width="2" height="2"/>
		<rect x="182" y="174" opacity="0.11" fill="#EF529A" enable-background="new    " width="2" height="2"/>
		<rect x="174" y="182" opacity="0.11" fill="#EF529A" enable-background="new    " width="2" height="2"/>
		<rect x="144" y="182" opacity="0.11" fill="#EF529A" enable-background="new    " width="2" height="2"/>
		<rect x="136" y="174" opacity="0.11" fill="#EF529A" enable-background="new    " width="2" height="2"/>
		<rect x="174" y="136" opacity="0.11" fill="#EF529A" enable-background="new    " width="2" height="2"/>
		<rect x="144" y="136" opacity="0.11" fill="#EF529A" enable-background="new    " width="2" height="2"/>
		<polygon opacity="0.11" fill="#EF529A" enable-background="new    " points="182,152 180,152 180,148 178,148 178,146 176,146 
			176,144 174,144 174,142 172,142 172,140 148,140 148,142 146,142 146,144 144,144 144,146 142,146 142,148 140,148 140,152 
			138,152 138,168 140,168 140,172 142,172 142,174 144,174 144,176 146,176 146,178 174,178 174,176 176,176 176,174 178,174 
			178,172 180,172 180,168 182,168 		"/>
		<rect x="152" y="138" opacity="0.11" fill="#EF529A" enable-background="new    " width="16" height="2"/>
		<polygon opacity="0.11" fill="#EF529A" enable-background="new    " points="148,180 152,180 152,182 168,182 168,180 172,180 
			172,178 148,178 		"/>
		<polygon fill="#F179AF" points="172,154 172,150 170,150 170,148 166,148 166,146 154,146 154,148 150,148 150,150 148,150 
			148,154 146,154 146,166 148,166 148,170 150,170 150,172 154,172 154,174 166,174 166,172 170,172 170,170 172,170 172,166 
			174,166 174,154 		"/>
		<g>
			<polygon fill="#EF529A" points="156,150 160,150 160,148 164,148 164,146 160,146 154,146 154,148 150,148 150,150 148,150 
				148,154 146,154 146,160 146,164 148,164 148,160 150,160 150,156 152,156 152,152 156,152 			"/>
			<polygon fill="#EF529A" points="172,156 172,160 170,160 170,164 168,164 168,168 164,168 164,170 160,170 160,172 156,172 
				156,174 160,174 166,174 166,172 170,172 170,170 172,170 172,166 174,166 174,160 174,156 			"/>
		</g>
	</g>
	<g>
		<polygon opacity="0.11" fill="#68CBDD" enable-background="new    " points="38,26 34,26 34,24 30,24 30,26 26,26 26,30 24,30 
			24,34 26,34 26,38 30,38 30,40 34,40 34,38 38,38 38,34 40,34 40,30 38,30 		"/>
		<rect x="28" y="28" fill="#68CBDD" width="8" height="8"/>
		<polygon fill="#A4DCE6" points="30,28 28,28 28,30 28,32 30,32 30,30 32,30 32,28 		"/>
		<polygon fill="#A4DCE6" points="34,32 34,34 32,34 32,36 34,36 36,36 36,34 36,32 		"/>
	</g>
	<g>
		<rect x="223" y="10" opacity="0.11" fill="#68CBDD" enable-background="new    " width="2" height="2"/>
		<rect x="223" y="52" opacity="0.11" fill="#68CBDD" enable-background="new    " width="2" height="2"/>
		<rect x="202" y="31" opacity="0.11" fill="#68CBDD" enable-background="new    " width="2" height="2"/>
		<rect x="244" y="31" opacity="0.11" fill="#68CBDD" enable-background="new    " width="2" height="2"/>
		<polygon opacity="0.11" fill="#68CBDD" enable-background="new    " points="240,20 238,20 238,18 236,18 236,16 232,16 232,14 
			216,14 216,16 212,16 212,18 210,18 210,20 208,20 208,24 206,24 206,40 208,40 208,44 210,44 210,46 212,46 212,48 216,48 
			216,50 232,50 232,48 236,48 236,46 238,46 238,44 240,44 240,40 242,40 242,24 240,24 		"/>
		<polygon fill="#68CBDD" points="234,26 232,26 232,24 230,24 230,22 218,22 218,24 216,24 216,26 214,26 214,38 216,38 216,40 
			218,40 218,42 230,42 230,40 232,40 232,38 234,38 		"/>
		<g>
			<polygon fill="#A4DCE6" points="224,28 224,30 222,30 222,32 220,32 220,34 220,36 222,36 224,36 224,34 226,34 226,32 228,32 
				228,30 228,28 226,28 			"/>
			<rect x="228" y="26" fill="#A4DCE6" width="2" height="2"/>
			<rect x="230" y="24" fill="#A4DCE6" width="2" height="2"/>
			<rect x="218" y="36" fill="#A4DCE6" width="2" height="2"/>
			<rect x="216" y="38" fill="#A4DCE6" width="2" height="2"/>
		</g>
	</g>
	<g>
		<rect x="95" y="10" opacity="0.11" fill="#68CBDD" enable-background="new    " width="2" height="2"/>
		<rect x="95" y="52" opacity="0.11" fill="#68CBDD" enable-background="new    " width="2" height="2"/>
		<rect x="116" y="31" opacity="0.11" fill="#68CBDD" enable-background="new    " width="2" height="2"/>
		<rect x="74" y="31" opacity="0.11" fill="#68CBDD" enable-background="new    " width="2" height="2"/>
		<polygon opacity="0.11" fill="#68CBDD" enable-background="new    " points="110,24 108,24 108,20 104,20 104,18 100,18 100,16 
			92,16 92,18 88,18 88,20 84,20 84,24 82,24 82,28 80,28 80,36 82,36 82,40 84,40 84,44 88,44 88,46 92,46 92,48 100,48 100,46 
			104,46 104,44 108,44 108,40 110,40 110,36 112,36 112,28 110,28 		"/>
		<polygon fill="#68CBDD" points="102,28 102,26 100,26 100,24 92,24 92,26 90,26 90,28 88,28 88,36 90,36 90,38 92,38 92,40 
			100,40 100,38 102,38 102,36 104,36 104,28 		"/>
		<g>
			<polygon fill="#A4DCE6" points="102,28 102,30 100,30 100,32 100,34 98,34 98,36 96,36 94,36 94,38 92,38 92,40 94,40 96,40 
				98,40 98,38 100,38 100,36 102,36 102,34 104,34 104,32 104,30 104,28 			"/>
			<polygon fill="#A4DCE6" points="92,32 92,30 94,30 94,28 96,28 98,28 98,26 100,26 100,24 98,24 96,24 94,24 94,26 92,26 92,28 
				90,28 90,30 88,30 88,32 88,34 88,36 90,36 90,34 92,34 			"/>
		</g>
	</g>
	<g>
		<rect x="182" y="16" opacity="0.11" fill="#68CBDD" enable-background="new    " width="2" height="2"/>
		<rect x="136" y="16" opacity="0.11" fill="#68CBDD" enable-background="new    " width="2" height="2"/>
		<rect x="182" y="46" opacity="0.11" fill="#68CBDD" enable-background="new    " width="2" height="2"/>
		<rect x="174" y="54" opacity="0.11" fill="#68CBDD" enable-background="new    " width="2" height="2"/>
		<rect x="144" y="54" opacity="0.11" fill="#68CBDD" enable-background="new    " width="2" height="2"/>
		<rect x="136" y="46" opacity="0.11" fill="#68CBDD" enable-background="new    " width="2" height="2"/>
		<rect x="174" y="8" opacity="0.11" fill="#68CBDD" enable-background="new    " width="2" height="2"/>
		<rect x="144" y="8" opacity="0.11" fill="#68CBDD" enable-background="new    " width="2" height="2"/>
		<polygon opacity="0.11" fill="#68CBDD" enable-background="new    " points="138,40 140,40 140,44 142,44 142,46 144,46 144,48 
			146,48 146,50 148,50 148,52 152,52 152,54 168,54 168,52 172,52 172,50 174,50 174,48 176,48 176,46 178,46 178,44 180,44 
			180,40 182,40 182,24 180,24 180,20 178,20 178,18 176,18 176,16 174,16 174,14 172,14 172,12 168,12 168,10 152,10 152,12 
			148,12 148,14 146,14 146,16 144,16 144,18 142,18 142,20 140,20 140,24 138,24 		"/>
		<polygon fill="#A4DCE6" points="172,26 172,22 170,22 170,20 166,20 166,18 154,18 154,20 150,20 150,22 148,22 148,26 146,26 
			146,38 148,38 148,42 150,42 150,44 154,44 154,46 166,46 166,44 170,44 170,42 172,42 172,38 174,38 174,26 		"/>
		<g>
			<polygon fill="#68CBDD" points="156,22 160,22 160,20 164,20 164,18 160,18 154,18 154,20 150,20 150,22 148,22 148,26 146,26 
				146,32 146,36 148,36 148,32 150,32 150,28 152,28 152,24 156,24 			"/>
			<polygon fill="#68CBDD" points="172,28 172,32 170,32 170,36 168,36 168,40 164,40 164,42 160,42 160,44 156,44 156,46 160,46 
				166,46 166,44 170,44 170,42 172,42 172,38 174,38 174,32 174,28 			"/>
		</g>
	</g>
	<g>
		<rect x="223" y="74" opacity="0.11" fill="#F4D682" enable-background="new    " width="2" height="2"/>
		<rect x="223" y="116" opacity="0.11" fill="#F4D682" enable-background="new    " width="2" height="2"/>
		<rect x="202" y="95" opacity="0.11" fill="#F4D682" enable-background="new    " width="2" height="2"/>
		<rect x="244" y="95" opacity="0.11" fill="#F4D682" enable-background="new    " width="2" height="2"/>
		<polygon opacity="0.11" fill="#F4D682" enable-background="new    " points="240,84 238,84 238,82 236,82 236,80 232,80 232,78 
			216,78 216,80 212,80 212,82 210,82 210,84 208,84 208,88 206,88 206,104 208,104 208,108 210,108 210,110 212,110 212,112 
			216,112 216,114 232,114 232,112 236,112 236,110 238,110 238,108 240,108 240,104 242,104 242,88 240,88 		"/>
		<polygon fill="#EFC33E" points="234,90 232,90 232,88 230,88 230,86 218,86 218,88 216,88 216,90 214,90 214,102 216,102 216,104 
			218,104 218,106 230,106 230,104 232,104 232,102 234,102 		"/>
		<g>
			<polygon fill="#F4D682" points="224,92 224,94 222,94 222,96 220,96 220,98 220,100 222,100 224,100 224,98 226,98 226,96 
				228,96 228,94 228,92 226,92 			"/>
			<rect x="228" y="90" fill="#F4D682" width="2" height="2"/>
			<rect x="230" y="88" fill="#F4D682" width="2" height="2"/>
			<rect x="218" y="100" fill="#F4D682" width="2" height="2"/>
			<rect x="216" y="102" fill="#F4D682" width="2" height="2"/>
		</g>
	</g>
	<g>
		<rect x="95" y="74" opacity="0.11" fill="#F4D682" enable-background="new    " width="2" height="2"/>
		<rect x="95" y="116" opacity="0.11" fill="#F4D682" enable-background="new    " width="2" height="2"/>
		<rect x="116" y="95" opacity="0.11" fill="#F4D682" enable-background="new    " width="2" height="2"/>
		<rect x="74" y="95" opacity="0.11" fill="#F4D682" enable-background="new    " width="2" height="2"/>
		<polygon opacity="0.11" fill="#F4D682" enable-background="new    " points="110,88 108,88 108,84 104,84 104,82 100,82 100,80 
			92,80 92,82 88,82 88,84 84,84 84,88 82,88 82,92 80,92 80,100 82,100 82,104 84,104 84,108 88,108 88,110 92,110 92,112 100,112 
			100,110 104,110 104,108 108,108 108,104 110,104 110,100 112,100 112,92 110,92 		"/>
		<polygon fill="#EFC33E" points="102,92 102,90 100,90 100,88 92,88 92,90 90,90 90,92 88,92 88,100 90,100 90,102 92,102 92,104 
			100,104 100,102 102,102 102,100 104,100 104,92 		"/>
		<g>
			<polygon fill="#F4D682" points="102,92 102,94 100,94 100,96 100,98 98,98 98,100 96,100 94,100 94,102 92,102 92,104 94,104 
				96,104 98,104 98,102 100,102 100,100 102,100 102,98 104,98 104,96 104,94 104,92 			"/>
			<polygon fill="#F4D682" points="92,96 92,94 94,94 94,92 96,92 98,92 98,90 100,90 100,88 98,88 96,88 94,88 94,90 92,90 92,92 
				90,92 90,94 88,94 88,96 88,98 88,100 90,100 90,98 92,98 			"/>
		</g>
	</g>
	<g>
		<polygon opacity="0.11" fill="#F4D682" enable-background="new    " points="176,110 178,110 178,108 180,108 180,104 182,104 
			182,88 180,88 180,84 178,84 178,82 176,82 176,80 174,80 174,78 172,78 172,76 148,76 148,78 146,78 146,80 144,80 144,82 
			142,82 142,84 140,84 140,88 138,88 138,104 140,104 140,108 142,108 142,110 144,110 144,112 146,112 146,114 174,114 174,112 
			176,112 		"/>
		<rect x="182" y="80" opacity="0.11" fill="#F4D682" enable-background="new    " width="2" height="2"/>
		<rect x="136" y="80" opacity="0.11" fill="#F4D682" enable-background="new    " width="2" height="2"/>
		<rect x="182" y="110" opacity="0.11" fill="#F4D682" enable-background="new    " width="2" height="2"/>
		<rect x="174" y="118" opacity="0.11" fill="#F4D682" enable-background="new    " width="2" height="2"/>
		<rect x="144" y="118" opacity="0.11" fill="#F4D682" enable-background="new    " width="2" height="2"/>
		<rect x="136" y="110" opacity="0.11" fill="#F4D682" enable-background="new    " width="2" height="2"/>
		<rect x="174" y="72" opacity="0.11" fill="#F4D682" enable-background="new    " width="2" height="2"/>
		<rect x="144" y="72" opacity="0.11" fill="#F4D682" enable-background="new    " width="2" height="2"/>
		<rect x="152" y="74" opacity="0.11" fill="#F4D682" enable-background="new    " width="16" height="2"/>
		<polygon opacity="0.11" fill="#F4D682" enable-background="new    " points="168,116 172,116 172,114 148,114 148,116 152,116 
			152,118 168,118 		"/>
		<polygon fill="#F4D682" points="172,90 172,86 170,86 170,84 166,84 166,82 154,82 154,84 150,84 150,86 148,86 148,90 146,90 
			146,102 148,102 148,106 150,106 150,108 154,108 154,110 166,110 166,108 170,108 170,106 172,106 172,102 174,102 174,90 		"/>
		<g>
			<polygon fill="#EFC33E" points="156,86 160,86 160,84 164,84 164,82 160,82 154,82 154,84 150,84 150,86 148,86 148,90 146,90 
				146,96 146,100 148,100 148,96 150,96 150,92 152,92 152,88 156,88 			"/>
			<polygon fill="#EFC33E" points="172,92 172,96 170,96 170,100 168,100 168,104 164,104 164,106 160,106 160,108 156,108 156,110 
				160,110 166,110 166,108 170,108 170,106 172,106 172,102 174,102 174,96 174,92 			"/>
		</g>
	</g>
	<g>
		<polygon opacity="0.11" fill="#F4D682" enable-background="new    " points="38,90 34,90 34,88 30,88 30,90 26,90 26,94 24,94 
			24,98 26,98 26,102 30,102 30,104 34,104 34,102 38,102 38,98 40,98 40,94 38,94 		"/>
		<rect x="28" y="92" fill="#EFC33E" width="8" height="8"/>
		<g>
			<polygon fill="#F4D682" points="32,92 30,92 28,92 28,94 28,96 30,96 30,94 32,94 			"/>
			<polygon fill="#F4D682" points="34,96 34,98 32,98 32,100 34,100 36,100 36,98 36,96 			"/>
		</g>
	</g>
</g>
</svg>
