<?xml version="1.0" encoding="utf-8"?>
<!-- Generator: Adobe Illustrator 15.1.0, SVG Export Plug-In . SVG Version: 6.00 Build 0)  -->
<!DOCTYPE svg PUBLIC "-//W3C//DTD SVG 1.1//EN" "http://www.w3.org/Graphics/SVG/1.1/DTD/svg11.dtd">
<svg version="1.1" id="Layer_1" xmlns="http://www.w3.org/2000/svg" xmlns:xlink="http://www.w3.org/1999/xlink" x="0px" y="0px"
	 width="288px" height="96px" viewBox="0 0 288 96" enable-background="new 0 0 288 96" xml:space="preserve">
<g id="Layer_2" display="none">
	<rect x="84" y="136" display="inline" fill="#323031" width="72" height="64"/>
	<rect x="-168" y="6" display="inline" fill="#323031" width="64" height="64"/>
	<rect x="-168" y="-90" display="inline" fill="#323031" width="64" height="64"/>
	<rect x="-168" y="-178" display="inline" fill="#323031" width="64" height="64"/>
	<rect x="-168" y="-270" display="inline" fill="#323031" width="64" height="64"/>
	<rect x="-84" y="-90" display="inline" fill="#323031" width="64" height="64"/>
	<rect x="-84" y="-178" display="inline" fill="#323031" width="64" height="64"/>
	<rect x="-84" y="-270" display="inline" fill="#323031" width="64" height="64"/>
	<rect x="12" y="-90" display="inline" fill="#323031" width="64" height="64"/>
	<rect x="12" y="-178" display="inline" fill="#323031" width="64" height="64"/>
	<rect x="12" y="-270" display="inline" fill="#323031" width="64" height="64"/>
	<rect x="100" y="-90" display="inline" fill="#323031" width="64" height="64"/>
	<rect x="-6.333" y="-6" display="inline" fill="#323031" width="306" height="102"/>
	<rect x="100" y="-178" display="inline" fill="#323031" width="64" height="64"/>
	<rect x="100" y="-270" display="inline" fill="#323031" width="64" height="64"/>
	<rect x="6" y="136" display="inline" fill="#323031" width="72" height="64"/>
	<rect x="168" y="136" display="inline" fill="#323031" width="72" height="64"/>
	<rect x="252" y="136" display="inline" fill="#323031" width="72" height="64"/>
</g>
<g id="Layer_1_1_">
	<g>
		<polygon fill="#A6A8AB" points="50,38 48,38 48,36 44,36 44,34 42,34 42,32 30,32 30,34 28,34 28,36 24,36 24,42 22,42 22,48 
			20,48 20,50 22,50 22,52 24,52 24,54 26,54 26,58 28,58 28,60 40,60 40,58 42,58 42,54 48,54 48,50 50,50 50,46 52,46 52,40 
			50,40 		"/>
	</g>
	<g>
		<polygon fill="#A6A8AB" points="128,40 124,40 124,36 116,36 116,32 114,32 114,28 102,28 102,32 100,32 100,36 96,36 96,42 
			92,42 92,44 88,44 88,50 92,50 92,58 96,58 96,62 98,62 98,66 100.25,66 100.25,68 104,68 104,70 110,70 110,68 113.75,68 
			113.75,66 116,66 116,62 124,62 124,60 128,60 128,48 130,48 130,42 128,42 		"/>
		<rect x="86" y="32" fill="#A6A8AB" width="4" height="4"/>
		<rect x="88" y="26" fill="#A6A8AB" width="2" height="2"/>
		<rect x="122" y="22" fill="#A6A8AB" width="2" height="2"/>
		<rect x="130" y="28" fill="#A6A8AB" width="2" height="2"/>
		<rect x="128" y="20" fill="#A6A8AB" width="4" height="4"/>
		<rect x="124" y="76" fill="#A6A8AB" width="2" height="2"/>
		<rect x="94" y="80" fill="#A6A8AB" width="2" height="2"/>
		<rect x="80" y="76" fill="#A6A8AB" width="4" height="4"/>
		<rect x="84" y="84" fill="#A6A8AB" width="2" height="2"/>
	</g>
	<g>
		<polygon fill="#A6A8AB" points="168,26 168,22 166,22 166,20 162,20 162,22 160,22 160,26 162,26 162,28 166,28 166,26 		"/>
		<polygon fill="#A6A8AB" points="192,54 186,54 186,56 184,56 184,62 186,62 186,64 192,64 192,62 194,62 194,56 192,56 		"/>
		<rect x="192" y="46" fill="#A6A8AB" width="4" height="4"/>
		<polygon fill="#A6A8AB" points="158,42 154,42 154,48 160,48 160,44 162,44 162,40 158,40 		"/>
		<polygon fill="#A6A8AB" points="176,64 170,64 170,70 166.25,70 166.25,74 170,74 170,76 176,76 176,74 178,74 178,72 182,72 
			182,66 176,66 		"/>
		<rect x="160" y="12" fill="#A6A8AB" width="2" height="2"/>
		<rect x="198" y="42" fill="#A6A8AB" width="2" height="2"/>
		<rect x="154" y="18" fill="#A6A8AB" width="2" height="2"/>
		<rect x="208" y="22" fill="#A6A8AB" width="2" height="2"/>
		<rect x="206" y="14" fill="#A6A8AB" width="2" height="2"/>
		<rect x="200" y="84" fill="#A6A8AB" width="2" height="2"/>
		<rect x="148" y="88" fill="#A6A8AB" width="2" height="2"/>
		<rect x="158" y="92" fill="#A6A8AB" width="2" height="2"/>
	</g>
	<g>
		<rect x="268" y="54" fill="#A6A8AB" width="6" height="6"/>
		<rect x="232" y="12" fill="#A6A8AB" width="2" height="2"/>
		<rect x="280" y="38" fill="#A6A8AB" width="2" height="2"/>
		<rect x="224" y="6" fill="#A6A8AB" width="2" height="2"/>
		<rect x="274" y="10" fill="#A6A8AB" width="2" height="2"/>
		<rect x="242" y="74" fill="#A6A8AB" width="2" height="2"/>
		<rect x="264" y="92" fill="#A6A8AB" width="2" height="2"/>
		<rect x="228" y="48" fill="#A6A8AB" width="2" height="2"/>
		<rect x="226" y="38" fill="#A6A8AB" width="2" height="2"/>
	</g>
</g>
</svg>
