<?xml version="1.0" encoding="utf-8"?>
<!-- Generator: Adobe Illustrator 15.1.0, SVG Export Plug-In . SVG Version: 6.00 Build 0)  -->
<!DOCTYPE svg PUBLIC "-//W3C//DTD SVG 1.1//EN" "http://www.w3.org/Graphics/SVG/1.1/DTD/svg11.dtd">
<svg version="1.1" id="Layer_1" xmlns="http://www.w3.org/2000/svg" xmlns:xlink="http://www.w3.org/1999/xlink" x="0px" y="0px"
	 width="288px" height="64px" viewBox="0 0 288 64" enable-background="new 0 0 288 64" xml:space="preserve">
<g id="Layer_2" display="none">
	<rect x="80" y="-2" display="inline" fill="#323031" width="72" height="64"/>
	<rect x="-172" y="-132" display="inline" fill="#323031" width="64" height="64"/>
	<rect x="-172" y="-228" display="inline" fill="#323031" width="64" height="64"/>
	<rect x="-172" y="-316" display="inline" fill="#323031" width="64" height="64"/>
	<rect x="-172" y="-408" display="inline" fill="#323031" width="64" height="64"/>
	<rect x="-88" y="-228" display="inline" fill="#323031" width="64" height="64"/>
	<rect x="-88" y="-316" display="inline" fill="#323031" width="64" height="64"/>
	<rect x="-88" y="-408" display="inline" fill="#323031" width="64" height="64"/>
	<rect x="8" y="-228" display="inline" fill="#323031" width="64" height="64"/>
	<rect x="8" y="-316" display="inline" fill="#323031" width="64" height="64"/>
	<rect x="8" y="-408" display="inline" fill="#323031" width="64" height="64"/>
	<rect x="96" y="-228" display="inline" fill="#323031" width="64" height="64"/>
	<rect x="-10.333" y="-144" display="inline" fill="#323031" width="306" height="102"/>
	<rect x="96" y="-316" display="inline" fill="#323031" width="64" height="64"/>
	<rect x="96" y="-408" display="inline" fill="#323031" width="64" height="64"/>
	<rect x="2" y="-2" display="inline" fill="#323031" width="72" height="64"/>
	<rect x="164" y="-2" display="inline" fill="#323031" width="72" height="64"/>
	<rect x="248" y="-2" display="inline" fill="#323031" width="72" height="64"/>
</g>
<g id="Layer_1_1_">
	<g>
		<g>
			<polygon opacity="0.35" fill="#F05A28" enable-background="new    " points="140,12 140,10 138,10 138,8 136,8 136,6 132,6 
				132,4 84,4 84,6 80,6 80,8 78,8 78,10 76,10 76,12 74,12 74,20 76,20 76,28 78,28 78,36 80,36 80,40 82,40 82,44 84,44 84,48 
				86,48 86,58 88,58 88,60 90,60 90,62 126,62 126,60 128,60 128,58 130,58 130,48 132,48 132,44 134,44 134,40 136,40 136,36 
				138,36 138,28 140,28 140,20 142,20 142,12 			"/>
			<rect x="132" y="6" opacity="0.35" fill="#F05A28" enable-background="new    " width="4" height="2"/>
		</g>
		<polygon fill="#995925" points="136,12 136,10 132,10 132,8 84,8 84,10 80,10 80,12 78,12 78,20 80,20 80,28 82,28 82,36 84,36 
			84,40 86,40 86,44 130,44 130,40 132,40 132,36 134,36 134,28 136,28 136,20 138,20 138,12 		"/>
		<rect x="86" y="54" opacity="0.6" fill="#F05A28" enable-background="new    " width="44" height="4"/>
		<g>
			<rect x="86" y="44" opacity="0.8" fill="#F05A28" enable-background="new    " width="44" height="4"/>
			<rect x="86" y="48" opacity="0.7" fill="#F05A28" enable-background="new    " width="44" height="6"/>
			<rect x="130" y="40" opacity="0.7" fill="#F05A28" enable-background="new    " width="2" height="4"/>
			<rect x="84" y="40" opacity="0.7" fill="#F05A28" enable-background="new    " width="2" height="4"/>
			<rect x="82" y="36" opacity="0.7" fill="#F05A28" enable-background="new    " width="2" height="4"/>
			<rect x="80" y="8" opacity="0.7" fill="#F05A28" enable-background="new    " width="4" height="2"/>
			<rect x="84" y="6" opacity="0.7" fill="#F05A28" enable-background="new    " width="48" height="2"/>
			<rect x="78" y="10" opacity="0.7" fill="#F05A28" enable-background="new    " width="2" height="2"/>
			<rect x="132" y="36" opacity="0.7" fill="#F05A28" enable-background="new    " width="2" height="4"/>
			<rect x="136" y="10" opacity="0.7" fill="#F05A28" enable-background="new    " width="2" height="2"/>
			<rect x="132" y="8" opacity="0.7" fill="#F05A28" enable-background="new    " width="4" height="2"/>
			<rect x="80" y="28" opacity="0.7" fill="#F05A28" enable-background="new    " width="2" height="8"/>
			<rect x="78" y="20" opacity="0.7" fill="#F05A28" enable-background="new    " width="2" height="8"/>
			<rect x="134" y="28" opacity="0.7" fill="#F05A28" enable-background="new    " width="2" height="8"/>
			<rect x="136" y="20" opacity="0.7" fill="#F05A28" enable-background="new    " width="2" height="8"/>
			<rect x="138" y="12" opacity="0.7" fill="#F05A28" enable-background="new    " width="2" height="8"/>
			<rect x="76" y="12" opacity="0.7" fill="#F05A28" enable-background="new    " width="2" height="8"/>
		</g>
		<g>
			<rect x="132" y="40" opacity="0.3" fill="#F05A28" enable-background="new    " width="2" height="4"/>
			<rect x="134" y="36" opacity="0.3" fill="#F05A28" enable-background="new    " width="2" height="4"/>
			<rect x="136" y="28" opacity="0.3" fill="#F05A28" enable-background="new    " width="2" height="8"/>
			<rect x="138" y="20" opacity="0.3" fill="#F05A28" enable-background="new    " width="2" height="8"/>
			<rect x="140" y="12" opacity="0.3" fill="#F05A28" enable-background="new    " width="2" height="8"/>
			<rect x="74" y="12" opacity="0.3" fill="#F05A28" enable-background="new    " width="2" height="8"/>
			<rect x="76" y="20" opacity="0.3" fill="#F05A28" enable-background="new    " width="2" height="8"/>
			<rect x="78" y="28" opacity="0.3" fill="#F05A28" enable-background="new    " width="2" height="8"/>
			<rect x="80" y="36" opacity="0.3" fill="#F05A28" enable-background="new    " width="2" height="4"/>
			<rect x="82" y="40" opacity="0.3" fill="#F05A28" enable-background="new    " width="2" height="4"/>
			<rect x="84" y="44" opacity="0.3" fill="#F05A28" enable-background="new    " width="2" height="4"/>
			<rect x="130" y="44" opacity="0.3" fill="#F05A28" enable-background="new    " width="2" height="4"/>
			<rect x="76" y="10" opacity="0.3" fill="#F05A28" enable-background="new    " width="2" height="2"/>
			<rect x="78" y="8" opacity="0.3" fill="#F05A28" enable-background="new    " width="2" height="2"/>
			<rect x="80" y="6" opacity="0.3" fill="#F05A28" enable-background="new    " width="4" height="2"/>
			<rect x="138" y="10" opacity="0.3" fill="#F05A28" enable-background="new    " width="2" height="2"/>
			<rect x="136" y="8" opacity="0.3" fill="#F05A28" enable-background="new    " width="2" height="2"/>
			<rect x="132" y="6" opacity="0.3" fill="#F05A28" enable-background="new    " width="4" height="2"/>
			<rect x="84" y="4" opacity="0.3" fill="#F05A28" enable-background="new    " width="48" height="2"/>
			<rect x="88" y="58" opacity="0.5" fill="#F05A28" enable-background="new    " width="40" height="2"/>
		</g>
		<rect x="90" y="60" opacity="0.4" fill="#F05A28" enable-background="new    " width="36" height="2"/>
		<polygon fill="#FBB040" points="130,14 130,12 86,12 86,14 84,14 84,20 86,20 86,28 88,28 88,38 92,38 92,44 124,44 124,38 
			128,38 128,28 130,28 130,20 132,20 132,14 		"/>
		<polygon fill="#F7941E" points="92,16 92,20 94,20 94,28 96,28 96,38 98,38 98,44 118,44 118,38 120,38 120,28 122,28 122,20 
			124,20 124,16 		"/>
		<polygon fill="#D88228" points="98,20 98,22 100,22 100,28 102,28 102,38 104,38 104,44 112,44 112,38 114,38 114,28 116,28 
			116,22 118,22 118,20 		"/>
	</g>
	<g>
		<g>
			<polygon opacity="0.35" fill="#F05A28" enable-background="new    " points="284,12 284,10 282,10 282,8 280,8 280,6 276,6 
				276,4 228,4 228,6 224,6 224,8 222,8 222,10 220,10 220,12 218,12 218,20 220,20 220,28 222,28 222,36 224,36 224,40 226,40 
				226,44 228,44 228,48 230,48 230,58 232,58 232,60 234,60 234,62 270,62 270,60 272,60 272,58 274,58 274,48 276,48 276,44 
				278,44 278,40 280,40 280,36 282,36 282,28 284,28 284,20 286,20 286,12 			"/>
			<rect x="276" y="6" opacity="0.35" fill="#F05A28" enable-background="new    " width="4" height="2"/>
		</g>
		<polygon fill="#F7941E" points="280,12 280,10 276,10 276,8 228,8 228,10 224,10 224,12 222,12 222,20 224,20 224,28 226,28 
			226,36 228,36 228,40 230,40 230,44 274,44 274,40 276,40 276,36 278,36 278,28 280,28 280,20 282,20 282,12 		"/>
		<rect x="230" y="54" opacity="0.6" fill="#F05A28" enable-background="new    " width="44" height="4"/>
		<g>
			<rect x="230" y="44" opacity="0.8" fill="#F05A28" enable-background="new    " width="44" height="4"/>
			<rect x="230" y="48" opacity="0.7" fill="#F05A28" enable-background="new    " width="44" height="6"/>
			<rect x="274" y="40" opacity="0.7" fill="#F05A28" enable-background="new    " width="2" height="4"/>
			<rect x="228" y="40" opacity="0.7" fill="#F05A28" enable-background="new    " width="2" height="4"/>
			<rect x="226" y="36" opacity="0.7" fill="#F05A28" enable-background="new    " width="2" height="4"/>
			<rect x="224" y="8" opacity="0.7" fill="#F05A28" enable-background="new    " width="4" height="2"/>
			<rect x="228" y="6" opacity="0.7" fill="#F05A28" enable-background="new    " width="48" height="2"/>
			<rect x="222" y="10" opacity="0.7" fill="#F05A28" enable-background="new    " width="2" height="2"/>
			<rect x="276" y="36" opacity="0.7" fill="#F05A28" enable-background="new    " width="2" height="4"/>
			<rect x="280" y="10" opacity="0.7" fill="#F05A28" enable-background="new    " width="2" height="2"/>
			<rect x="276" y="8" opacity="0.7" fill="#F05A28" enable-background="new    " width="4" height="2"/>
			<rect x="224" y="28" opacity="0.7" fill="#F05A28" enable-background="new    " width="2" height="8"/>
			<rect x="222" y="20" opacity="0.7" fill="#F05A28" enable-background="new    " width="2" height="8"/>
			<rect x="278" y="28" opacity="0.7" fill="#F05A28" enable-background="new    " width="2" height="8"/>
			<rect x="280" y="20" opacity="0.7" fill="#F05A28" enable-background="new    " width="2" height="8"/>
			<rect x="282" y="12" opacity="0.7" fill="#F05A28" enable-background="new    " width="2" height="8"/>
			<rect x="220" y="12" opacity="0.7" fill="#F05A28" enable-background="new    " width="2" height="8"/>
		</g>
		<g>
			<rect x="276" y="40" opacity="0.3" fill="#F05A28" enable-background="new    " width="2" height="4"/>
			<rect x="278" y="36" opacity="0.3" fill="#F05A28" enable-background="new    " width="2" height="4"/>
			<rect x="280" y="28" opacity="0.3" fill="#F05A28" enable-background="new    " width="2" height="8"/>
			<rect x="282" y="20" opacity="0.3" fill="#F05A28" enable-background="new    " width="2" height="8"/>
			<rect x="284" y="12" opacity="0.3" fill="#F05A28" enable-background="new    " width="2" height="8"/>
			<rect x="218" y="12" opacity="0.3" fill="#F05A28" enable-background="new    " width="2" height="8"/>
			<rect x="220" y="20" opacity="0.3" fill="#F05A28" enable-background="new    " width="2" height="8"/>
			<rect x="222" y="28" opacity="0.3" fill="#F05A28" enable-background="new    " width="2" height="8"/>
			<rect x="224" y="36" opacity="0.3" fill="#F05A28" enable-background="new    " width="2" height="4"/>
			<rect x="226" y="40" opacity="0.3" fill="#F05A28" enable-background="new    " width="2" height="4"/>
			<rect x="228" y="44" opacity="0.3" fill="#F05A28" enable-background="new    " width="2" height="4"/>
			<rect x="274" y="44" opacity="0.3" fill="#F05A28" enable-background="new    " width="2" height="4"/>
			<rect x="220" y="10" opacity="0.3" fill="#F05A28" enable-background="new    " width="2" height="2"/>
			<rect x="222" y="8" opacity="0.3" fill="#F05A28" enable-background="new    " width="2" height="2"/>
			<rect x="224" y="6" opacity="0.3" fill="#F05A28" enable-background="new    " width="4" height="2"/>
			<rect x="282" y="10" opacity="0.3" fill="#F05A28" enable-background="new    " width="2" height="2"/>
			<rect x="280" y="8" opacity="0.3" fill="#F05A28" enable-background="new    " width="2" height="2"/>
			<rect x="276" y="6" opacity="0.3" fill="#F05A28" enable-background="new    " width="4" height="2"/>
			<rect x="228" y="4" opacity="0.3" fill="#F05A28" enable-background="new    " width="48" height="2"/>
			<rect x="232" y="58" opacity="0.5" fill="#F05A28" enable-background="new    " width="40" height="2"/>
		</g>
		<rect x="234" y="60" opacity="0.4" fill="#F05A28" enable-background="new    " width="36" height="2"/>
		<polygon fill="#D88228" points="274,14 274,12 230,12 230,14 228,14 228,20 230,20 230,28 232,28 232,38 236,38 236,44 268,44 
			268,38 272,38 272,28 274,28 274,20 276,20 276,14 		"/>
		<polygon fill="#995925" points="236,16 236,20 238,20 238,28 240,28 240,38 242,38 242,44 262,44 262,38 264,38 264,28 266,28 
			266,20 268,20 268,16 		"/>
		<polygon fill="#FBB040" points="242,20 242,22 244,22 244,28 246,28 246,38 248,38 248,44 256,44 256,38 258,38 258,28 260,28 
			260,22 262,22 262,20 		"/>
	</g>
	<g>
		<g>
			<polygon opacity="0.35" fill="#F05A28" enable-background="new    " points="212,12 212,10 210,10 210,8 208,8 208,6 204,6 
				204,4 156,4 156,6 152,6 152,8 150,8 150,10 148,10 148,12 146,12 146,20 148,20 148,28 150,28 150,36 152,36 152,40 154,40 
				154,44 156,44 156,48 158,48 158,58 160,58 160,60 162,60 162,62 198,62 198,60 200,60 200,58 202,58 202,48 204,48 204,44 
				206,44 206,40 208,40 208,36 210,36 210,28 212,28 212,20 214,20 214,12 			"/>
			<rect x="204" y="6" opacity="0.35" fill="#F05A28" enable-background="new    " width="4" height="2"/>
		</g>
		<polygon fill="#D88228" points="208,12 208,10 204,10 204,8 156,8 156,10 152,10 152,12 150,12 150,20 152,20 152,28 154,28 
			154,36 156,36 156,40 158,40 158,44 202,44 202,40 204,40 204,36 206,36 206,28 208,28 208,20 210,20 210,12 		"/>
		<rect x="158" y="54" opacity="0.45" fill="#F05A28" enable-background="new    " width="44" height="4"/>
		<g>
			<rect x="158" y="44" opacity="0.65" fill="#F05A28" enable-background="new    " width="44" height="4"/>
			<rect x="158" y="48" opacity="0.55" fill="#F05A28" enable-background="new    " width="44" height="6"/>
			<rect x="202" y="40" opacity="0.55" fill="#F05A28" enable-background="new    " width="2" height="4"/>
			<rect x="156" y="40" opacity="0.55" fill="#F05A28" enable-background="new    " width="2" height="4"/>
			<rect x="154" y="36" opacity="0.55" fill="#F05A28" enable-background="new    " width="2" height="4"/>
			<rect x="152" y="8" opacity="0.55" fill="#F05A28" enable-background="new    " width="4" height="2"/>
			<rect x="156" y="6" opacity="0.55" fill="#F05A28" enable-background="new    " width="48" height="2"/>
			<rect x="150" y="10" opacity="0.55" fill="#F05A28" enable-background="new    " width="2" height="2"/>
			<rect x="204" y="36" opacity="0.55" fill="#F05A28" enable-background="new    " width="2" height="4"/>
			<rect x="208" y="10" opacity="0.55" fill="#F05A28" enable-background="new    " width="2" height="2"/>
			<rect x="204" y="8" opacity="0.55" fill="#F05A28" enable-background="new    " width="4" height="2"/>
			<rect x="152" y="28" opacity="0.55" fill="#F05A28" enable-background="new    " width="2" height="8"/>
			<rect x="150" y="20" opacity="0.55" fill="#F05A28" enable-background="new    " width="2" height="8"/>
			<rect x="206" y="28" opacity="0.55" fill="#F05A28" enable-background="new    " width="2" height="8"/>
			<rect x="208" y="20" opacity="0.55" fill="#F05A28" enable-background="new    " width="2" height="8"/>
			<rect x="210" y="12" opacity="0.55" fill="#F05A28" enable-background="new    " width="2" height="8"/>
			<rect x="148" y="12" opacity="0.55" fill="#F05A28" enable-background="new    " width="2" height="8"/>
		</g>
		<g>
			<rect x="204" y="40" opacity="0.2" fill="#F05A28" enable-background="new    " width="2" height="4"/>
			<rect x="206" y="36" opacity="0.2" fill="#F05A28" enable-background="new    " width="2" height="4"/>
			<rect x="208" y="28" opacity="0.2" fill="#F05A28" enable-background="new    " width="2" height="8"/>
			<rect x="210" y="20" opacity="0.2" fill="#F05A28" enable-background="new    " width="2" height="8"/>
			<rect x="212" y="12" opacity="0.2" fill="#F05A28" enable-background="new    " width="2" height="8"/>
			<rect x="146" y="12" opacity="0.2" fill="#F05A28" enable-background="new    " width="2" height="8"/>
			<rect x="148" y="20" opacity="0.2" fill="#F05A28" enable-background="new    " width="2" height="8"/>
			<rect x="150" y="28" opacity="0.2" fill="#F05A28" enable-background="new    " width="2" height="8"/>
			<rect x="152" y="36" opacity="0.2" fill="#F05A28" enable-background="new    " width="2" height="4"/>
			<rect x="154" y="40" opacity="0.2" fill="#F05A28" enable-background="new    " width="2" height="4"/>
			<rect x="156" y="44" opacity="0.2" fill="#F05A28" enable-background="new    " width="2" height="4"/>
			<rect x="202" y="44" opacity="0.2" fill="#F05A28" enable-background="new    " width="2" height="4"/>
			<rect x="148" y="10" opacity="0.2" fill="#F05A28" enable-background="new    " width="2" height="2"/>
			<rect x="150" y="8" opacity="0.2" fill="#F05A28" enable-background="new    " width="2" height="2"/>
			<rect x="152" y="6" opacity="0.2" fill="#F05A28" enable-background="new    " width="4" height="2"/>
			<rect x="210" y="10" opacity="0.2" fill="#F05A28" enable-background="new    " width="2" height="2"/>
			<rect x="208" y="8" opacity="0.2" fill="#F05A28" enable-background="new    " width="2" height="2"/>
			<rect x="204" y="6" opacity="0.2" fill="#F05A28" enable-background="new    " width="4" height="2"/>
			<rect x="156" y="4" opacity="0.2" fill="#F05A28" enable-background="new    " width="48" height="2"/>
			<rect x="160" y="58" opacity="0.35" fill="#F05A28" enable-background="new    " width="40" height="2"/>
		</g>
		<rect x="162" y="60" opacity="0.25" fill="#F05A28" enable-background="new    " width="36" height="2"/>
		<polygon fill="#995925" points="202,14 202,12 158,12 158,14 156,14 156,20 158,20 158,28 160,28 160,38 164,38 164,44 196,44 
			196,38 200,38 200,28 202,28 202,20 204,20 204,14 		"/>
		<polygon fill="#FBB040" points="164,16 164,20 166,20 166,28 168,28 168,38 170,38 170,44 190,44 190,38 192,38 192,28 194,28 
			194,20 196,20 196,16 		"/>
		<polygon fill="#F7941E" points="170,20 170,22 172,22 172,28 174,28 174,38 176,38 176,44 184,44 184,38 186,38 186,28 188,28 
			188,22 190,22 190,20 		"/>
	</g>
	<g>
		<g>
			<polygon opacity="0.35" fill="#F05A28" enable-background="new    " points="68,12 68,10 66,10 66,8 64,8 64,6 60,6 60,4 12,4 
				12,6 8,6 8,8 6,8 6,10 4,10 4,12 2,12 2,20 4,20 4,28 6,28 6,36 8,36 8,40 10,40 10,44 12,44 12,48 14,48 14,58 16,58 16,60 
				18,60 18,62 54,62 54,60 56,60 56,58 58,58 58,48 60,48 60,44 62,44 62,40 64,40 64,36 66,36 66,28 68,28 68,20 70,20 70,12 			
				"/>
			<rect x="60" y="6" opacity="0.35" fill="#F05A28" enable-background="new    " width="4" height="2"/>
		</g>
		<polygon fill="#FAAF40" points="64,12 64,10 60,10 60,8 12,8 12,10 8,10 8,12 6,12 6,20 8,20 8,28 10,28 10,36 12,36 12,40 14,40 
			14,44 58,44 58,40 60,40 60,36 62,36 62,28 64,28 64,20 66,20 66,12 		"/>
		<polygon fill="#F6921E" points="58,14 58,12 14,12 14,14 12,14 12,20 14,20 14,28 16,28 16,38 20,38 20,44 52,44 52,38 56,38 
			56,28 58,28 58,20 60,20 60,14 		"/>
		<polygon fill="#D88128" points="20,16 20,20 22,20 22,28 24,28 24,38 26,38 26,44 46,44 46,38 48,38 48,28 50,28 50,20 52,20 
			52,16 		"/>
		<polygon fill="#985925" points="26,20 26,22 28,22 28,28 30,28 30,38 32,38 32,44 40,44 40,38 42,38 42,28 44,28 44,22 46,22 
			46,20 		"/>
		<g>
			<rect x="14" y="44" opacity="0.65" fill="#F05A28" enable-background="new    " width="44" height="4"/>
			<rect x="14" y="48" opacity="0.55" fill="#F05A28" enable-background="new    " width="44" height="6"/>
			<rect x="58" y="40" opacity="0.55" fill="#F05A28" enable-background="new    " width="2" height="4"/>
			<rect x="12" y="40" opacity="0.55" fill="#F05A28" enable-background="new    " width="2" height="4"/>
			<rect x="10" y="36" opacity="0.55" fill="#F05A28" enable-background="new    " width="2" height="4"/>
			<rect x="8" y="8" opacity="0.55" fill="#F05A28" enable-background="new    " width="4" height="2"/>
			<rect x="12" y="6" opacity="0.55" fill="#F05A28" enable-background="new    " width="48" height="2"/>
			<rect x="6" y="10" opacity="0.55" fill="#F05A28" enable-background="new    " width="2" height="2"/>
			<rect x="60" y="36" opacity="0.55" fill="#F05A28" enable-background="new    " width="2" height="4"/>
			<rect x="64" y="10" opacity="0.55" fill="#F05A28" enable-background="new    " width="2" height="2"/>
			<rect x="60" y="8" opacity="0.55" fill="#F05A28" enable-background="new    " width="4" height="2"/>
			<rect x="8" y="28" opacity="0.55" fill="#F05A28" enable-background="new    " width="2" height="8"/>
			<rect x="6" y="20" opacity="0.55" fill="#F05A28" enable-background="new    " width="2" height="8"/>
			<rect x="62" y="28" opacity="0.55" fill="#F05A28" enable-background="new    " width="2" height="8"/>
			<rect x="64" y="20" opacity="0.55" fill="#F05A28" enable-background="new    " width="2" height="8"/>
			<rect x="66" y="12" opacity="0.55" fill="#F05A28" enable-background="new    " width="2" height="8"/>
			<rect x="4" y="12" opacity="0.55" fill="#F05A28" enable-background="new    " width="2" height="8"/>
		</g>
		<g>
			<rect x="60" y="40" opacity="0.2" fill="#F05A28" enable-background="new    " width="2" height="4"/>
			<rect x="62" y="36" opacity="0.2" fill="#F05A28" enable-background="new    " width="2" height="4"/>
			<rect x="64" y="28" opacity="0.2" fill="#F05A28" enable-background="new    " width="2" height="8"/>
			<rect x="66" y="20" opacity="0.2" fill="#F05A28" enable-background="new    " width="2" height="8"/>
			<rect x="68" y="12" opacity="0.2" fill="#F05A28" enable-background="new    " width="2" height="8"/>
			<rect x="2" y="12" opacity="0.2" fill="#F05A28" enable-background="new    " width="2" height="8"/>
			<rect x="4" y="20" opacity="0.2" fill="#F05A28" enable-background="new    " width="2" height="8"/>
			<rect x="6" y="28" opacity="0.2" fill="#F05A28" enable-background="new    " width="2" height="8"/>
			<rect x="8" y="36" opacity="0.2" fill="#F05A28" enable-background="new    " width="2" height="4"/>
			<rect x="10" y="40" opacity="0.2" fill="#F05A28" enable-background="new    " width="2" height="4"/>
			<rect x="12" y="44" opacity="0.2" fill="#F05A28" enable-background="new    " width="2" height="4"/>
			<rect x="58" y="44" opacity="0.2" fill="#F05A28" enable-background="new    " width="2" height="4"/>
			<rect x="4" y="10" opacity="0.2" fill="#F05A28" enable-background="new    " width="2" height="2"/>
			<rect x="6" y="8" opacity="0.2" fill="#F05A28" enable-background="new    " width="2" height="2"/>
			<rect x="8" y="6" opacity="0.2" fill="#F05A28" enable-background="new    " width="4" height="2"/>
			<rect x="66" y="10" opacity="0.2" fill="#F05A28" enable-background="new    " width="2" height="2"/>
			<rect x="64" y="8" opacity="0.2" fill="#F05A28" enable-background="new    " width="2" height="2"/>
			<rect x="60" y="6" opacity="0.2" fill="#F05A28" enable-background="new    " width="4" height="2"/>
			<rect x="12" y="4" opacity="0.2" fill="#F05A28" enable-background="new    " width="48" height="2"/>
			<rect x="16" y="58" opacity="0.35" fill="#F05A28" enable-background="new    " width="40" height="2"/>
		</g>
		<rect x="18" y="60" opacity="0.25" fill="#F05A28" enable-background="new    " width="36" height="2"/>
		<rect x="14" y="54" opacity="0.45" fill="#F05A28" enable-background="new    " width="44" height="4"/>
	</g>
</g>
</svg>
