<?xml version="1.0" encoding="utf-8"?>
<!-- Generator: Adobe Illustrator 15.1.0, SVG Export Plug-In . SVG Version: 6.00 Build 0)  -->
<!DOCTYPE svg PUBLIC "-//W3C//DTD SVG 1.1//EN" "http://www.w3.org/Graphics/SVG/1.1/DTD/svg11.dtd">
<svg version="1.1" id="Layer_1" xmlns="http://www.w3.org/2000/svg" xmlns:xlink="http://www.w3.org/1999/xlink" x="0px" y="0px"
	 width="64px" height="64px" viewBox="0 0 64 64" enable-background="new 0 0 64 64" xml:space="preserve">
<g id="Layer_2" display="none">
	<rect x="252" y="130" display="inline" fill="#323031" width="72" height="64"/>
	<rect display="inline" fill="#323031" width="64" height="64"/>
	<rect y="-96" display="inline" fill="#323031" width="64" height="64"/>
	<rect y="-184" display="inline" fill="#323031" width="64" height="64"/>
	<rect y="-276" display="inline" fill="#323031" width="64" height="64"/>
	<rect x="84" y="-96" display="inline" fill="#323031" width="64" height="64"/>
	<rect x="84" y="-184" display="inline" fill="#323031" width="64" height="64"/>
	<rect x="84" y="-276" display="inline" fill="#323031" width="64" height="64"/>
	<rect x="180" y="-96" display="inline" fill="#323031" width="64" height="64"/>
	<rect x="180" y="-184" display="inline" fill="#323031" width="64" height="64"/>
	<rect x="180" y="-276" display="inline" fill="#323031" width="64" height="64"/>
	<rect x="268" y="-96" display="inline" fill="#323031" width="64" height="64"/>
	<rect x="161.667" y="-12" display="inline" fill="#323031" width="306" height="102"/>
	<rect x="268" y="-184" display="inline" fill="#323031" width="64" height="64"/>
	<rect x="268" y="-276" display="inline" fill="#323031" width="64" height="64"/>
	<rect x="174" y="130" display="inline" fill="#323031" width="72" height="64"/>
	<rect x="336" y="130" display="inline" fill="#323031" width="72" height="64"/>
	<rect x="420" y="130" display="inline" fill="#323031" width="72" height="64"/>
</g>
<g id="Layer_1_1_">
	<g>
		<g>
			<rect x="48" y="12" fill="#E6E7E8" width="2" height="2"/>
			<rect x="42" y="10" fill="#E6E7E8" width="6" height="2"/>
			<polygon fill="#E6E7E8" points="50,26 50,24 48,24 48,22 46,22 46,20 44,20 42,20 42,18 42,16 42,12 40,12 40,16 38,16 38,18 
				36,18 34,18 32,18 32,12 32,10 38,10 38,8 32,8 30,8 30,10 30,12 28,12 28,16 26,16 26,18 24,18 22,18 22,20 20,20 18,20 18,22 
				16,22 16,24 14,24 14,28 12,28 12,38 14,38 14,40 16,40 16,42 18,42 18,44 22,44 22,46 26,46 26,50 28,50 28,52 30,52 30,54 
				42,54 42,52 44,52 44,50 46,50 46,48 46,46 48,46 48,42 50,42 50,40 52,40 52,38 52,26 			"/>
		</g>
		<g>
			<polygon opacity="0.11" fill="#3C3C3C" enable-background="new    " points="46,50 46,48 20,48 20,50 16,50 16,52 12,52 12,54 
				14,54 14,56 20,56 20,58 46,58 46,56 46,54 48,54 48,52 48,50 			"/>
			<g>
				<rect x="32" y="46" fill="#FFFFFF" width="2" height="4"/>
				<rect x="36" y="46" fill="#FFFFFF" width="2" height="4"/>
				<rect x="40" y="46" fill="#FFFFFF" width="2" height="4"/>
				<rect x="44" y="46" fill="#FFFFFF" width="2" height="2"/>
				<rect x="34" y="46" fill="#808285" width="2" height="4"/>
				<rect x="30" y="46" fill="#808285" width="2" height="4"/>
				<rect x="38" y="46" fill="#808285" width="2" height="4"/>
				<rect x="42" y="46" fill="#808285" width="2" height="4"/>
				<g>
					<polygon fill="#231F20" points="36,30 34,30 32,30 32,32 30,32 30,36 32,36 34,36 36,36 38,36 38,28 36,28 					"/>
					<polygon fill="#231F20" points="46,30 46,32 44,32 44,36 46,36 48,36 48,30 					"/>
					<rect x="40" y="38" fill="#231F20" width="2" height="4"/>
				</g>
				<g>
					<rect x="30" y="50" fill="#D1D3D4" width="14" height="2"/>
					<rect x="44" y="44" fill="#D1D3D4" width="2" height="2"/>
					<rect x="40" y="44" fill="#D1D3D4" width="2" height="2"/>
					<rect x="36" y="44" fill="#D1D3D4" width="2" height="2"/>
					<rect x="32" y="44" fill="#D1D3D4" width="2" height="2"/>
					<rect x="28" y="44" fill="#D1D3D4" width="2" height="2"/>
					<polygon fill="#D1D3D4" points="26,42 24,42 24,44 26,44 28,44 28,42 					"/>
					<polygon fill="#D1D3D4" points="22,40 22,38 20,38 20,40 20,42 24,42 24,40 					"/>
					<rect x="32" y="28" fill="#D1D3D4" width="4" height="2"/>
					<rect x="44" y="30" fill="#D1D3D4" width="2" height="2"/>
					<rect x="42" y="32" fill="#D1D3D4" width="2" height="2"/>
					<rect x="30" y="30" fill="#D1D3D4" width="2" height="2"/>
					<rect x="28" y="32" fill="#D1D3D4" width="2" height="2"/>
					<rect x="28" y="36" fill="#D1D3D4" width="2" height="2"/>
					<rect x="36" y="26" fill="#D1D3D4" width="2" height="2"/>
					<polygon fill="#D1D3D4" points="46,28 46,30 48,30 48,42 50,42 50,28 48,28 					"/>
					<rect x="48" y="12" fill="#D1D3D4" width="2" height="2"/>
					<rect x="32" y="18" fill="#D1D3D4" width="2" height="2"/>
					<polygon fill="#D1D3D4" points="40,16 38,16 38,20 40,20 42,20 42,18 42,16 42,12 40,12 					"/>
					<rect x="42" y="10" fill="#D1D3D4" width="6" height="2"/>
					<polygon fill="#D1D3D4" points="44,22 46,22 46,20 44,20 42,20 42,22 					"/>
					<polygon fill="#D1D3D4" points="48,26 50,26 50,24 48,24 48,22 46,22 46,26 					"/>
				</g>
			</g>
			<g>
				<rect x="30" y="52" fill="#A7A9AC" width="12" height="2"/>
				<polygon fill="#A7A9AC" points="28,44 24,44 24,42 18,42 18,44 22,44 22,46 26,46 26,50 28,50 28,46 				"/>
				<polygon fill="#A7A9AC" points="34,38 36,38 38,38 38,36 36,36 34,36 32,36 30,36 30,38 32,38 				"/>
				<polygon fill="#A7A9AC" points="44,36 44,38 46,38 48,38 48,36 46,36 				"/>
				<rect x="28" y="50" fill="#A7A9AC" width="2" height="2"/>
				<rect x="38" y="40" fill="#A7A9AC" width="2" height="2"/>
				<rect x="46" y="42" fill="#A7A9AC" width="2" height="4"/>
				<rect x="44" y="48" fill="#A7A9AC" width="2" height="2"/>
				<rect x="42" y="50" fill="#A7A9AC" width="2" height="2"/>
				<polygon fill="#A7A9AC" points="38,20 38,18 36,18 34,18 34,20 36,20 				"/>
				<rect x="16" y="40" fill="#A7A9AC" width="2" height="2"/>
				<rect x="14" y="38" fill="#A7A9AC" width="2" height="2"/>
				<rect x="50" y="26" fill="#A7A9AC" width="2" height="14"/>
			</g>
		</g>
	</g>
</g>
</svg>
